<?xml version="1.0" standalone="no"?>
<!DOCTYPE svg PUBLIC "-//W3C//DTD SVG 1.1//EN" "http://www.w3.org/Graphics/SVG/1.1/DTD/svg11.dtd" >
<svg xmlns="http://www.w3.org/2000/svg">
<metadata>Generated by IcoMoon</metadata>
<defs>
<font id="iconfont" horiz-adv-x="1024">
<font-face units-per-em="1024" ascent="896" descent="-128" />
<missing-glyph horiz-adv-x="1024" />
<glyph unicode="&#x20;" horiz-adv-x="0" d="" />
<glyph unicode="&#x78;" glyph-name="x" horiz-adv-x="1001" d="M281 543q-27-1-53-1h-83q-18 0-36.5-6t-32.5-18.5-23-32-9-45.5v-76h912v41q0 16-0.5 30t-0.5 18q0 13-5 29t-17 29.5-31.5 22.5-49.5 9h-133v-97h-438v97zM955 310v-52q0-23 0.5-52t0.5-58-10.5-47.5-26-30-33-16-31.5-4.5q-14-1-29.5-0.5t-29.5 0.5h-32l-45 128h-439l-44-128h-63q-20 0-45 1-25 0-41 9.5t-25.5 23-13.5 29.5-4 30v167h911zM163 247q-12 0-21-8.5t-9-21.5 9-21.5 21-8.5q13 0 22 8.5t9 21.5-9 21.5-22 8.5zM316 123q-8-26-14-48-5-19-10.5-37t-7.5-25-3-15 1-14.5 9.5-10.5 21.5-4h365q23 0 34 12t2 38q-5 13-9.5 30.5t-9.5 34.5q-5 19-11 39h-368zM336 498v228q0 11 2.5 23t10 21.5 20.5 15.5 34 6h188q31 0 51.5-14.5t20.5-52.5v-227h-327z" />
<glyph unicode="&#x79;" glyph-name="x2" horiz-adv-x="1001" d="M281 543q-27-1-53-1h-83q-18 0-36.5-6t-32.5-18.5-23-32-9-45.5v-76h912v41q0 16-0.5 30t-0.5 18q0 13-5 29t-17 29.5-31.5 22.5-49.5 9h-133v-97h-438v97zM955 310v-52q0-23 0.5-52t0.5-58-10.5-47.5-26-30-33-16-31.5-4.5q-14-1-29.5-0.5t-29.5 0.5h-32l-45 128h-439l-44-128h-63q-20 0-45 1-25 0-41 9.5t-25.5 23-13.5 29.5-4 30v167h911zM163 247q-12 0-21-8.5t-9-21.5 9-21.5 21-8.5q13 0 22 8.5t9 21.5-9 21.5-22 8.5zM316 123q-8-26-14-48-5-19-10.5-37t-7.5-25-3-15 1-14.5 9.5-10.5 21.5-4h365q23 0 34 12t2 38q-5 13-9.5 30.5t-9.5 34.5q-5 19-11 39h-368zM336 498v228q0 11 2.5 23t10 21.5 20.5 15.5 34 6h188q31 0 51.5-14.5t20.5-52.5v-227h-327z" />
<glyph unicode="&#xe600;" glyph-name="ccgl-dizhiliebiao-4" d="M12.054 354.56c0 19.627 0 39.253 0 58.773 0.534 2.453 1.173 4.907 1.494 7.467 2.026 16.533 2.987 33.28 5.973 49.6 23.254 125.654 84.907 228.586 185.28 307.734 69.866 55.040 149.44 88.534 237.653 100.693 13.334 1.814 26.667 3.306 40 5.013 19.627 0 39.253 0 58.773 0 2.453-0.534 4.907-1.173 7.467-1.493 16.533-2.026 33.28-2.987 49.6-5.973 125.654-23.254 228.586-84.907 307.734-185.28 55.040-69.973 88.534-149.44 100.693-237.653 1.814-13.334 3.306-26.667 5.013-40 0-19.627 0-39.253 0-58.773-0.534-2.453-1.173-4.907-1.494-7.467-2.026-16.533-2.987-33.28-5.973-49.6-23.254-125.974-85.121-229.12-185.92-308.267-69.761-54.72-149.014-88-237.014-100.16-13.334-1.814-26.667-3.306-40-5.013-19.627 0-39.253 0-58.773 0-2.453 0.534-4.907 1.173-7.467 1.493-16.533 2.026-33.28 2.987-49.6 5.973-125.653 23.254-228.586 84.907-307.734 185.28-55.040 69.866-88.427 149.333-100.693 237.653-1.814 13.334-3.306 26.667-5.013 40zM797.654 490.881c-0.427 6.080-0.853 16.747-2.24 27.2-1.387 10.56-3.306 21.014-5.973 31.361-39.041 155.84-190.4 249.387-347.733 214.933-124.374-27.2-219.626-140.8-225.494-267.947-1.707-36.481 8.214-70.186 21.867-102.934 53.333-127.573 125.974-243.734 213.44-350.507 12.48-15.253 28.053-28.053 42.774-41.28 7.787-7.041 17.174-6.934 25.173 0 11.307 9.813 23.36 19.093 32.746 30.613 25.493 31.254 50.986 62.507 74.027 95.573 57.6 82.454 109.227 168.533 147.734 261.866 12.693 30.827 24 62.293 23.681 101.12zM750.507 485.334c-1.067-26.134-9.067-50.134-18.24-73.813-29.547-75.734-70.187-145.493-114.454-213.333-24.107-36.906-49.281-73.067-79.36-105.494-5.44-5.866-11.306-11.52-17.6-16.64-11.627-9.28-16.213-9.813-27.307-0.214-12.054 10.56-23.893 21.867-33.814 34.453-73.387 92.267-134.293 192-178.454 301.441-10.667 26.453-18.134 53.867-16.533 83.093 5.44 105.067 82.666 197.654 184.961 221.547 132.586 30.827 260.907-47.787 292.907-179.946 3.947-16.747 5.334-34.133 7.894-51.093zM627.946 480.853c0 66.987-53.76 121.066-120.427 121.173-67.413 0.107-121.707-53.867-121.814-120.854-0.107-66.88 54.506-121.493 121.493-121.28 66.56 0 120.747 54.294 120.747 120.961zM506.987 553.601c40 0.107 72.533-32.213 72.533-72.321s-32.427-72.853-72.214-72.96c-40.107 0-72.96 32.427-73.067 72.107-0.214 40.533 32.107 72.96 72.747 73.174z" />
<glyph unicode="&#xe601;" glyph-name="nvsheng" d="M291.351 238.881c0 0 0 0 0 0 0-22.533 18.267-40.802 40.802-40.802 22.533 0 40.802 18.267 40.802 40.802 0 0 0 0 0 0s0 0 0 0c0 22.533-18.267 40.802-40.802 40.802-22.533 0-40.802-18.267-40.802-40.802s0 0 0 0zM631.801 238.881c0 0 0 0 0 0 0-22.533 18.267-40.802 40.802-40.802 22.533 0 40.802 18.267 40.802 40.802 0 0 0 0 0 0s0 0 0 0c0 22.533-18.267 40.802-40.802 40.802-22.533 0-40.802-18.267-40.802-40.802s0 0 0 0zM925.224 361.868c-0.058 5.561-0.193 11.161-0.47 16.82 0.172 2.986 0.347 5.987 0.527 9.022 0.491 8.229-0.877 17.151-3.689 26.527-17.975 139.408-103.836 293.221-303.443 333.031 2.464 8.199 3.806 16.821 3.806 25.727 0 54.14-48.636 98.029-108.626 98.029s-108.626-43.889-108.626-98.029c0-8.989 1.366-17.683 3.877-25.954-222.691-45.407-305.914-235.645-307.17-386.25-31.069-23.037-50.494-59.706-50.494-100.205 0-51.694 31.634-97.163 78.761-115.973 44.822-284.499 63.754-207.634 63.754-173.877 0 15.429-6.661 59.388-8.51 112.83 16.963-31.181 38.5-60.101 64.3-85.903 70.473-70.474 164.172-109.285 263.837-109.285s193.364 38.812 263.837 109.285c16.471 16.471 31.187 34.223 44.107 53.012-1.742-47.345-3.060-88.121-3.060-103.171-0.001-33.922 32.676 8.909 67.118 153.302 3.579 15.004 6.783 29.085 9.682 42.416 49.15 17.872 82.432 64.345 82.432 117.369 0 41.13-20.027 78.32-51.951 101.284zM68.138 260.585c0 30.625 12.901 58.717 34.162 78.569 0.285-2.407 0.624-4.641 1.035-6.658l-0.006-0.014c8.369-65.667 16.092-121.002 23.196-167.522-35.313 18.222-58.384 54.658-58.384 95.626zM822.313 85.511c-61.344-107.381-176.985-179.917-309.255-179.917-147.712 0-274.683 90.461-328.455 218.884 1.626 75.735 16.766 159.962 72.42 207.935 59.845 51.587 88.962 136.347 103.035 201.571 13.023-57.306 42.704-126.436 110.369-142.268 114.809-26.858 165.69-28.206 218.137-29.066 24.843-0.407 130.263 3.974 140.862-102.066 0.001-0.001-3.863-90.455-7.11-175.073zM899.077 163.702c14.324 69.85 19.424 117.422 22.53 162.444 1.315 3.685 2.284 8.39 2.897 14.193 22.029-19.905 35.451-48.511 35.451-79.754-0.001-41.927-24.161-79.114-60.878-96.881z" />
<glyph unicode="&#xe602;" glyph-name="xindong1" d="M511.997 684.353c55.094 121.267 121.208 176.387 242.414 176.387 143.245 0 253.431-110.242 253.431-231.507 0-77.169-22.037-154.339-66.112-231.508h-55.094c44.075 77.169 77.131 154.339 77.131 220.484 0 110.242-99.169 187.411-220.375 187.411-88.151 0-143.245-55.12-198.337-132.29-55.095-77.169-33.058-66.145-77.133 11.023-55.094 66.145-121.208 132.29-198.339 132.29-121.202 0-220.37-88.193-220.37-198.436 0-66.145 33.056-143.314 88.15-220.484h-55.094c-44.075 77.169-77.131 154.339-77.131 231.508 0 121.267 110.187 231.507 253.431 231.507 121.202 0.001 187.316-55.12 253.428-176.385zM192.456 375.676l66.112 132.29 77.127-121.267 88.15 242.532 143.244-253.555h517.882c11.019 0 22.039-11.023 22.039-22.048v-11.025c0-11.025-11.019-22.049-22.039-22.049h-506.864s-44.075 0-55.092 33.074l-88.151 176.387-77.131-187.411c-22.037-33.072-44.075 22.049-55.088 33.072-22.037 22.048-33.062 55.122-33.062 55.122l-44.075-88.194c0-11.025-11.013-22.049-11.013-22.049h-286.489s-11.019 11.023-11.019 22.049v11.025c0 11.023 11.019 22.048 11.019 22.048h264.45zM875.617 309.531c-99.169-132.29-231.395-253.553-363.621-385.844-143.244 132.29-275.464 253.553-374.633 385.844h66.112c88.144-110.24 198.331-220.482 308.52-319.7 99.169 99.216 220.376 209.459 308.526 319.7h55.095z" />
<glyph unicode="&#xe603;" glyph-name="weituangou" d="M500.5-72q-90.5 0-173.5 35-80 34-141.5 95.5t-95.5 141.5q-35 83-35 173.5t35 173.5q34 80 95.5 141.5t141.5 95.5q83 35 173.5 35t173.5-35q80-34 141.5-95.5t95.5-141.5q35-83 35-173.5t-35-173.5q-34-80-95.5-141.5t-141.5-95.5q-83-35-173.5-35zM500.5 791q-113.5 0-210-56t-152.5-152-56-209.5 56-210 152.5-152.5 210-56 210 56 152.5 152.5 56 210-56 209.5-152.5 152-210 56zM613 777h31v-812h-31v812zM75 478h841v-31h-841v31zM199 63q7 3 18 8t45 23 67 38.5 76.5 54.5 80.5 70.5 73 86.5 59 103z" />
<glyph unicode="&#xe604;" glyph-name="pingjia1" d="M857.175 744h-690.319c-41.278 0-74.856-33.55-74.856-74.763v-505.819c0-41.244 33.577-74.793 74.856-74.793h250.411l94.764-94.624 94.703 94.624h250.44c41.278 0 74.825 33.55 74.825 74.793v505.819c0 41.214-33.547 74.763-74.825 74.763zM855.606 636.212v-442.307c0-21.329-17.114-38.677-38.124-38.677h-242.024l-63.407-64.336-63.464 64.336h-241.968c-21.068 0-38.182 17.35-38.182 38.677v442.307c0 21.329 17.114 38.677 38.182 38.677h610.862c21.011 0 38.124-17.35 38.124-38.677zM620.585 429.42c0-27.42 22.32-49.77 49.74-49.77 27.45 0 49.77 22.349 49.77 49.77s-22.32 49.74-49.77 49.74c-27.42 0-49.74-22.32-49.74-49.74zM462.245 429.42c0-27.42 22.349-49.77 49.77-49.77s49.74 22.349 49.74 49.77c0 27.42-22.32 49.74-49.74 49.74s-49.77-22.32-49.77-49.74zM303.935 429.42c0-27.42 22.32-49.77 49.74-49.77s49.74 22.349 49.74 49.77c0 27.42-22.32 49.74-49.74 49.74s-49.74-22.32-49.74-49.74z" />
<glyph unicode="&#xe605;" glyph-name="shouye" d="M837.643 311.318c-19.291 0-34.929-15.639-34.929-34.929v-329.239h-574.543v329.239c0 19.29-15.639 34.929-34.929 34.929s-34.929-15.639-34.929-34.929v-364.168c0-19.29 15.639-34.929 34.929-34.929h644.401c19.29 0 34.929 15.639 34.929 34.929v364.168c0 19.29-15.639 34.929-34.929 34.929zM1005.291 448.328l-466.569 436.505c-13.41 12.545-34.247 12.565-47.679 0.044l-468.31-436.525c-14.111-13.153-14.888-35.255-1.735-49.366 6.88-7.379 16.206-11.112 25.559-11.112 8.528 0 17.077 3.105 23.807 9.378l444.451 414.285 442.748-414.222c14.087-13.179 36.19-12.443 49.37 1.644s12.444 36.189-1.642 49.368z" />
<glyph unicode="&#xe606;" glyph-name="huiyuan" d="M5.192 820.804h290.978v-72.671h-290.978v72.672zM78.009 754.668h218.16v-808.079h-218.16v808.079zM1020.603 820.804l-724.434-874.216-211.888 205.125 572.481 669.48z" />
<glyph unicode="&#xe607;" glyph-name="wodetuandui" horiz-adv-x="1026" d="M0 384c0-282.77 229.23-512 512-512s512 229.23 512 512v0c0 282.77-229.23 512-512 512s-512-229.23-512-512v0zM512 655.93c38.236 0 74.376-14.871 99.858-40.376 25.505-25.505 40.376-61.623 40.376-99.858s-14.871-74.353-40.376-99.858c-25.483-25.483-61.6-40.376-99.858-40.376s-74.353 14.871-99.858 40.376c-25.483 25.505-40.376 61.6-40.376 99.858s14.871 74.353 40.376 99.858c25.505 25.505 61.623 40.376 99.858 40.376zM592.752 596.447c-21.247 19.129-48.893 31.859-80.752 31.859-29.741 0-59.482-12.73-78.612-31.859-21.247-21.247-33.977-48.87-33.977-80.729s12.73-59.482 33.977-80.729c19.129-19.129 48.87-31.859 78.612-31.859 31.859 0 59.505 12.73 80.752 31.859 19.106 21.247 31.859 48.87 31.859 80.729s-12.753 59.482-31.859 80.729zM312.306 120.542h2.118c-12.73 0-21.247 27.623-16.989 27.623 2.118 70.095 19.129 133.836 57.365 178.47 36.118 42.494 87.106 67.977 161.481 67.977 74.331 0 127.459-25.483 163.577-67.977 36.14-44.612 53.106-108.375 55.224-178.47 4.258 0-6.354-27.623-16.989-27.623h-405.788zM376.024 307.506c-33.977-38.236-48.848-95.6-50.988-159.341h382.4c-2.14 63.741-16.989 121.105-48.87 159.341-31.859 36.14-76.494 59.505-142.33 59.505-63.718 0-110.448-23.365-140.212-59.505zM673.459 581.576c-8.494 0-12.73 6.376-12.73 14.871 2.14 8.494 8.494 12.73 17.011 12.73 27.601-4.236 50.988-19.129 70.095-38.236 16.989-19.129 27.623-46.73 27.623-74.353 0-29.741-10.635-55.224-27.623-74.353-8.315-10.112-18.152-18.599-29.231-25.223l-0.51-0.282c34-8.494 59.505-25.505 80.729-50.988 27.623-36.14 40.376-82.87 42.494-135.976 2.118 0-4.236-25.483-16.989-25.483h-42.516c-8.494 0-12.708 6.376-12.708 12.73 0 8.494 4.236 14.871 12.708 14.871h31.882c-2.14 46.73-14.871 87.106-38.236 116.87-21.224 27.601-53.106 44.589-99.858 46.73-0.109-0.003-0.237-0.005-0.365-0.005-8.014 0-14.51 6.496-14.51 14.51 0 0.128 0.002 0.256 0.005 0.384v-0.019s0 2.118 2.14 4.236c-2.14 0-2.14 0-2.14 2.118 0 6.376 4.236 12.753 12.73 14.871 21.322 2.244 39.91 12.44 53.022 27.524l0.084 0.099c12.753 14.871 21.247 36.118 21.247 57.342s-8.494 40.376-21.247 55.247c-12.73 17.034-31.859 25.528-53.106 29.786zM356.917 609.2c6.376 0 12.753-4.236 14.871-12.73 0-8.494-4.236-14.871-12.73-14.871-21.247-4.236-40.376-12.753-53.106-29.741-12.753-14.871-21.247-34-21.247-55.247s8.494-42.494 21.247-57.342c13.196-15.183 31.784-25.379 52.753-27.593l0.353-0.030c8.494-2.118 12.73-8.494 12.73-14.871v-6.354c0-8.494-6.376-14.871-12.73-14.871-46.752-2.118-80.729-19.129-101.976-46.73-23.365-29.741-36.118-70.117-38.236-116.87h31.882c8.494 0 14.871-6.376 14.871-14.871 0-6.354-6.376-12.73-14.871-12.73h-42.516c-12.753 0-19.129 25.483-16.989 25.483 2.118 53.106 14.871 99.858 44.612 135.976 19.129 25.483 44.612 42.494 78.612 50.988-11.589 6.906-21.426 15.394-29.587 25.312l-0.154 0.193c-16.989 19.129-27.623 44.612-27.623 74.353 0 27.623 10.635 55.247 27.623 74.353 19.106 19.061 42.471 33.932 72.213 38.19z" />
<glyph unicode="&#xe608;" glyph-name="yongjinguanli" d="M519.509 453.184c-192.768 0-359.552 48.896-442.112 120.32v-112.256c24.704-84.416 213.12-150.080 442.112-150.080 245.76 0 444.928 75.584 444.928 168.896 0-0.064 53.12-0.192 52.352 0 0-121.984-222.656-220.8-497.28-220.8-192.768 0-359.552 48.704-442.112 119.936v-111.36c24.704-84.352 213.12-150.080 442.112-150.080 245.76 0 444.928 75.648 444.928 168.96 0-0.128 53.12-0.256 52.352 0 0-122.048-222.656-220.928-497.28-220.928-192.768 0-359.552 48.768-442.112 120v-111.744c24.704-84.416 213.12-150.080 442.112-150.080 245.76 0 444.928 75.648 444.928 168.896 0-0.064 53.12-0.192 52.352 0 0-121.984-222.656-220.864-497.28-220.864-232 0-426.304 70.656-481.28 166.080h-16.064v608.832h4.288c-2.564 8.26-4.119 17.772-4.287 27.623l-0.001 0.089c0 122.176 222.72 221.376 497.28 221.376 274.688 0 497.344-99.136 497.344-221.44 0-122.24-222.656-221.376-497.28-221.376zM519.509 844.096c-245.568 0.064-444.672-75.904-444.672-169.472 0-93.632 199.040-169.6 444.672-169.6 245.568 0 444.672 75.968 444.672 169.6 0 93.568-199.104 169.472-444.672 169.472z" />
<glyph unicode="&#xe609;" glyph-name="shangjia1" d="M869.659-94.495h-708.144c-42.16 0-76.461 34.301-76.461 76.461v217.564c0 16.241 13.167 29.409 29.409 29.409s29.409-13.168 29.409-29.409v-217.564c0-9.73 7.914-17.644 17.645-17.644h708.144c9.73 0 17.645 7.914 17.645 17.644v217.564c0 16.241 13.167 29.409 29.409 29.409s29.409-13.168 29.409-29.409v-217.564c-0.001-42.16-34.302-76.461-76.462-76.461zM815.549 524.248h-599.923c-16.242 0-29.409 13.168-29.409 29.409s13.167 29.409 29.409 29.409h599.923c16.241 0 29.409-13.168 29.409-29.409s-13.168-29.409-29.409-29.409zM526.241 293.463c-60.893 0-117.869 34.074-167.766 69.823-59.925-41.113-116.064-61.928-167.122-61.928-44.518 0-84.265 15.348-118.137 45.615-28.498 25.467-46.113 55.715-55.871 76.606-10.709 22.925-13.917 63.333-7.304 91.989 1.496 6.482 11.669 40.074 21.967 65.615 19.391 48.091 65.689 140.439 99.445 204.909 27.185 51.922 60.518 62.821 83.693 62.821h604.629c23.033 0 55.731-11.084 80.697-63.89 9.447-19.981 23.697-48.93 38.785-79.58 28.562-58.019 60.934-123.781 76.214-159.948 7.926-18.755 8.54-38.915 8.836-48.602 0.032-1.051 0.051-1.927 0.093-2.586 0.336-5.433 1.368-33.84-11.463-59.344-22.724-45.164-47.616-77.931-76.103-100.174-28.224-22.040-59.857-33.213-94.015-33.213-0.008 0-0.012 0-0.021 0-49.010 0.006-101.689 21.836-168.424 70.242-20.013-23.186-40.915-41.32-62.368-54.078-27.091-16.109-55.945-24.277-85.762-24.277zM358.655 428.966c6.153 0 12.304-1.926 17.504-5.778 46.316-34.307 99.928-70.91 150.080-70.91 41.698 0 80.722 25.411 119.302 77.683 4.708 6.38 11.792 10.585 19.646 11.668 7.85 1.086 15.811-1.050 22.070-5.918 66.063-51.383 115.489-75.318 155.545-75.323 0.002 0 0.008 0 0.011 0 44.925 0 83.382 33.037 117.578 101.008 4.615 9.174 5.7 22.824 5.302 29.272-0.070 1.13-0.121 2.629-0.178 4.43-0.188 6.125-0.576 18.87-4.227 27.511-14.618 34.604-46.594 99.554-74.801 156.859-15.192 30.864-29.542 60.014-39.188 80.416-5.336 11.284-16.005 30.215-27.525 30.215h-604.63c-13.23 0-25.469-19.6-31.586-31.285-33.132-63.279-78.416-153.527-97.003-199.621-9.066-22.486-18.071-52.247-19.232-56.958-4.102-17.777-0.829-44.901 3.31-53.76 12.401-26.548 48.987-88.295 120.717-88.295 43.145 0 93.53 21.191 149.759 62.986 5.206 3.87 11.375 5.806 17.543 5.806z" />
<glyph unicode="&#xe60a;" glyph-name="iconsczl" d="M852.784-51.955h-684.549c-56.661 0-102.691 46.921-102.691 104.776v665.487c0 57.849 46.029 104.776 102.691 104.776h171.148c56.697 0 102.683-46.927 102.683-104.776h410.718c56.661 0 102.648-46.957 102.648-104.775v-560.713c0-57.856-45.986-104.775-102.648-104.775v0zM901.146 627.843c0 19.278-15.354 34.95-34.233 34.95h-712.807c-18.88 0-34.233-15.671-34.233-34.95v-589.376c0-19.264 15.353-34.943 34.233-34.943h712.807c18.879 0 34.233 15.679 34.233 34.943v589.376zM824.773 322.407h-76.221v-104.776c0-19.263-15.39-34.949-34.233-34.949h-68.458c-18.871 0-34.224 15.686-34.224 34.949v104.776h-62.708c-20.204 0-26.678 3.664-7.407 23.334l103.66 105.854c34.769 35.522 34.298 35.341 69.175 0l117.971-105.854c18.908-19.67 14.489-23.334-7.555-23.334v0zM220.942 392.735v57.385h254.241v-57.385h-254.241zM220.942 292.311v57.385h254.241v-57.385h-254.241zM220.942 191.894v57.385h254.241v-57.385h-254.241z" />
<glyph unicode="&#xe60b;" glyph-name="wuliu32pt" horiz-adv-x="1000" d="M625 54h-253v16q0 32-22.5 54.5t-54 22.5-54-22.5-22.5-54.5v-16h-161v586h567v-586zM402 86h191v522h-503v-522h98q6 40 36.5 66.5t71 26.5 71-26.5 35.5-66.5zM976 54h-124v16q0 32-22.5 54.5t-54 22.5-54-22.5-22.5-54.5v-16h-106v457h201q19 0 53-32 26-26 56-65 73-95 73-131v-229zM883 86h61v197q0 9-16.5 39t-47.5 70q-28 37-53 62-24 23-33 25h-169v-393h43q6 40 36.5 66.5t71 26.5 71-26.5 36.5-66.5zM976 257h-272v180h181l5-6q34-41 58-82 28-45 28-66v-26zM736 289h207q-5 16-22 44-21 35-51 72h-134v-116zM775.5-38q-44.5 0-76.5 31.5t-32 76.5 32 77 76.5 32 76.5-32 32-77-32-76.5-76.5-31.5zM775.5 147q-31.5 0-54-22.5t-22.5-54 22.5-54 54-22.5 54 22.5 22.5 54-22.5 54-54 22.5zM295-38q-45 0-76.5 31.5t-31.5 76.5 31.5 77 76.5 32 77-32 32-77-32-76.5-77-31.5zM295.5 147q-31.5 0-54-22.5t-22.5-54 22.5-54 54-22.5 54 22.5 22.5 54-22.5 54-54 22.5z" />
<glyph unicode="&#xe60c;" glyph-name="bianji" d="M325 124.5q7-7.5 17-7.5t18 8l607 729q8 7 8 17.5t-7.5 17.5-17.5 7-17-7l-608-730q-7-7-7-17t7-17.5zM951 385q-10 0-17-7.5t-7-17.5v-390q0-21-14.5-35t-34.5-14h-732q-20 0-34.5 14t-14.5 35v732q0 20 14.5 34.5t34.5 14.5h342q10 0 17 7t7 17-7 17.5-17 7.5h-342q-41 0-69.5-29t-28.5-69v-732q0-41 28.5-69.5t69.5-28.5h732q41 0 69.5 28.5t28.5 69.5v390q0 10-7.5 17.5t-17.5 7.5z" />
<glyph unicode="&#xe60d;" glyph-name="sousuo2" d="M893 449.5q0 90.5-35.5 173.5t-95.5 142.5-142.5 95-173 35.5-173.5-35.5-142.5-95-95-142.5-35.5-173.5 35.5-173 95-142.5 142.5-95.5 173.5-35.5 173 35.5 142.5 95.5 95.5 142.5 35.5 173zM53 450q0 107 52.5 197.5t143 143 197.5 52.5 198-52.5 143.5-143 52.5-197.5-52.5-198-143.5-143.5-198-52.5-197.5 52.5-143 143.5-52.5 198zM979-120l37 37-236 236-37-37z" />
<glyph unicode="&#xe60e;" glyph-name="daishouhuo" d="M758.175-21.735c-65.167 0-118.043 52.878-118.043 118.043 0 4.175 0.234 7.886 0.462 11.363h-197.59c-2.783-1.392-5.799-2.090-9.045-2.090h-62.154c-7.651-58.674-57.515-102.739-117.116-102.739-59.369 0-109.463 44.063-117.116 102.739h-61.69c-11.828 0-21.337 9.507-21.337 21.337v298.704c0 3.942 1.159 7.886 3.011 11.13l102.739 167.907c24.583 38.96 60.995 58.674 108.539 58.674h144.018c4.405 71.43 63.315 127.090 134.971 127.090h285.025c74.677 0 135.205-60.759 135.205-135.205v-440.869c0-53.805-39.89-99.026-92.996-105.985 0.462-3.942 0.698-8.117 0.698-12.29 0.462-64.934-52.412-117.812-117.579-117.812zM758.175 171.684c-41.51 0-75.37-33.861-75.37-75.37s33.861-75.37 75.37-75.37 75.37 33.861 75.37 75.37-33.628 75.37-75.37 75.37zM254.692 196.266c-41.51 0-75.37-33.861-75.37-75.603 0-41.51 33.861-75.37 75.37-75.37s75.37 33.861 75.37 75.37c0 41.744-33.861 75.603-75.37 75.603zM254.692 238.707c54.268 0 102.275-38.032 114.797-90.677h43.134l0.234 472.874h-143.785c-32.701 0-55.658-12.29-72.356-38.727l-99.492-162.57v-271.569h42.441c12.755 52.645 60.759 90.677 115.029 90.677zM653.35 150.114c20.409 39.66 60.528 64.006 105.056 64.006s84.649-24.583 105.056-64.006c34.784 0.698 62.849 29.221 62.849 64.241v440.869c0 51.023-41.51 92.765-92.765 92.765h-285.253c-51.023 0-92.765-41.51-92.765-92.765v-505.106h197.824zM174.218 400.117c-11.828 0-21.337 9.507-21.337 21.337s9.507 21.337 21.337 21.337h101.345v101.345c0 11.828 9.507 21.337 21.337 21.337s21.337-9.507 21.337-21.337v-122.681c0-11.828-9.507-21.337-21.337-21.337h-122.681z" />
<glyph unicode="&#xe60f;" glyph-name="dingdanguanli" d="M271.977 452.665h-68.525c-18.936 0-34.309-15.373-34.309-34.309s15.373-34.309 34.309-34.309h68.525c18.936 0 34.309 15.373 34.309 34.309s-15.373 34.309-34.309 34.309zM271.977 246.998h-68.525c-18.936 0-34.309-15.373-34.309-34.309s15.373-34.309 34.309-34.309h68.525c18.936 0 34.309 15.373 34.309 34.309s-15.373 34.309-34.309 34.309zM271.977 658.333h-68.525c-18.936 0-34.309-15.373-34.309-34.309s15.373-34.309 34.309-34.309h68.525c18.936 0 34.309 15.373 34.309 34.309s-15.373 34.309-34.309 34.309zM820.548 658.333h-342.81c-18.936 0-34.309-15.373-34.309-34.309s15.373-34.309 34.309-34.309h342.81c18.936 0 34.309 15.373 34.309 34.309s-15.373 34.309-34.309 34.309zM854.763 864h-685.621c-75.743 0-137.143-61.307-137.143-137.049v-685.621c0-75.743 61.4-137.143 137.143-137.143h685.621c75.743 0 137.143 61.4 137.143 137.143v685.621c0 75.743-61.4 137.049-137.143 137.049zM923.382 41.237c0-37.871-30.653-68.525-68.525-68.525h-685.714c-37.871 0-68.618 30.653-68.618 68.525v685.714c0 37.871 30.747 68.525 68.618 68.525h685.621c37.871 0 68.525-30.653 68.525-68.525v-685.714zM820.548 452.665h-342.81c-18.936 0-34.309-15.373-34.309-34.309s15.373-34.309 34.309-34.309h342.81c18.936 0 34.309 15.373 34.309 34.309s-15.373 34.309-34.309 34.309zM820.548 246.998h-342.81c-18.936 0-34.309-15.373-34.309-34.309s15.373-34.309 34.309-34.309h342.81c18.936 0 34.309 15.373 34.309 34.309s-15.373 34.309-34.309 34.309z" />
<glyph unicode="&#xe610;" glyph-name="paixing" d="M841 527h-82q-31 0-53-22t-22-53v-394h-49v625q0 31-22 53t-53 22h-82q-31 0-52.5-22t-21.5-53v-625h-49v223q0 31-22 53t-53 22h-82q-31 0-52.5-22t-21.5-53v-253h792v424q0 31-22 53t-53 22zM434 683q0 19 13 32t31 13h82q19 0 32-13t13-32v-625h-171v625zM154 281q0 19 13 32t31 13h82q19 0 32-13t13-32v-223h-171v223zM714 58v394q0 19 13.5 32t31.5 13h82q19 0 32-13t13-32v-394h-172z" />
<glyph unicode="&#xe611;" glyph-name="fanhui" d="M512-117q102 0 195 39.5t160 106.5 106.5 160 39.5 195-39.5 195-106.5 160-160 106.5-195 39.5-195-39.5-160-106.5-106.5-160-39.5-195 39.5-195 106.5-160 160-106.5 195-39.5zM512 848q94 0 180.5-36.5t148.5-98.5 98.5-148.5 36.5-181-36.5-180.5-98.5-148-148.5-98.5-180.5-36.5-180.5 36.5-148.5 98.5-98.5 148-36.5 180.5 36.5 181 98.5 148.5 148.5 98.5 180.5 36.5zM343 359v0l260-259 26 26-259 259 259 260-26 26-260-259-26-27z" />
<glyph unicode="&#xe612;" glyph-name="duihuan" d="M512 885.617c-277.035 0-501.617-224.582-501.617-501.617s224.582-501.617 501.617-501.617c277.035 0 501.617 224.582 501.617 501.617s-224.582 501.617-501.617 501.617zM768.099 230.71l-368.854-0.368 59.559-100.425-84.126-47.291c0 0-118.779 179.518-118.779 198.941 0 1.806 0.842 3.347 1.032 5.098 0.123 1.483 0.316 2.909 0.912 4.526 4.65 23.511 24.397 41.585 49.266 41.585h12.786c4.021 0.561 7.39 0.418 10.579 0l437.624 0.368v-102.434zM767.067 481.334c-0.135-1.47-0.316-2.908-0.924-4.527-4.639-23.511-24.397-41.585-49.266-41.585h-12.786c-4.020-0.561-7.39-0.414-10.571 0l-437.621 2.876v102.436l368.841-2.876-59.547 100.437 84.114 47.279c0 0 118.792-179.505 118.792-198.927 0-1.819-0.854-3.347-1.032-5.113z" />
<glyph unicode="&#xe613;" glyph-name="dingdan" d="M512 870.4c-268.8 0-486.4-217.6-486.4-486.4s217.6-486.4 486.4-486.4 486.4 217.6 486.4 486.4-217.6 486.4-486.4 486.4zM463.872 634.88h91.648c15.36 0 27.648-12.288 27.648-27.648s-12.288-27.648-27.648-27.648h-91.648c-15.36 0-27.648 12.288-27.648 27.648s12.288 27.648 27.648 27.648zM389.12 506.88h256c10.24 0 18.432-8.192 18.432-18.432s-8.192-18.432-18.432-18.432h-256c-10.24 0-18.432 8.192-18.432 18.432s8.192 18.432 18.432 18.432zM645.12 360.96h-256c-10.24 0-18.432 8.192-18.432 18.432s8.192 18.432 18.432 18.432h256c10.24 0 18.432-8.192 18.432-18.432s-8.192-18.432-18.432-18.432zM663.552 269.312c0-10.24-8.192-18.432-18.432-18.432h-256c-10.24 0-18.432 8.192-18.432 18.432s8.192 18.432 18.432 18.432h256c10.24 0 18.432-8.192 18.432-18.432zM773.12 196.096c0-40.448-32.768-73.216-73.216-73.216h-365.568c-40.448 0-73.216 32.768-73.216 73.216v347.648c0 40.448 32.768 73.216 73.216 73.216h18.432c10.24 0 18.432-8.192 18.432-18.432s-8.192-18.432-18.432-18.432h-18.432c-19.968 0-36.352-16.384-36.352-36.352v-347.648c0-19.968 16.384-36.352 36.352-36.352h365.568c19.968 0 36.352 16.384 36.352 36.352v347.648c0 19.968-16.384 36.352-36.352 36.352h-18.432c-10.24 0-18.432 8.192-18.432 18.432s8.192 18.432 18.432 18.432h18.432c40.448 0 73.216-32.768 73.216-73.216v-347.648z" />
<glyph unicode="&#xe614;" glyph-name="xiugaiziliao" d="M944 654c-144-138-288-288-426-432l-12-12c-60-96-162-108-258-138-18-6-48 30-42 48 18 60 30 120 48 174 6 12 12 18 18 24 132 126 270 258 402 384 30 30 60 66 90 102 42 48 96 48 138 6 30-24 120-84 42-156zM728 666l-390-390 66-66c132 126 264 258 390 384-24 24-48 48-66 72zM758 720c30-30 60-60 96-90 6 6 24 18 30 30 54 60 48 54-12 114l-6 6c-18 12-30 12-48 0l-60-60zM272 138c30 12 54 24 72 30-12 18-24 36-42 54-12-30-18-54-30-84zM464-72h-258c-48 0-90 12-120 54-18 24-24 54-24 84v516c0 90 60 150 150 150h282c18 0 42 0 42-30-6-18-24-30-54-30h-270c-66 0-102-36-102-102v-498c0-54 36-90 84-90h534c42 0 72 30 72 78v366c6 12 18 24 30 24s18-18 24-30v-354c0-96-42-138-138-138h-252z" />
<glyph unicode="&#xe615;" glyph-name="daipingjia" d="M502.303 733.783h-296.69c-66.848 0-119.252-51.169-119.252-116.366v-552.526c0-31.36 11.969-59.007 34.662-78.814 21.458-19.392 51.58-29.708 84.59-29.708h550.875c32.188 0 59.011 10.316 77.578 29.297 18.569 19.393 28.059 46.628 28.059 79.226l-0.823 350.331c0 11.143-7.841 19.807-18.571 19.807-10.728 0-18.567-8.25-18.567-19.807v-350.743c0-39.2-30.948-71.386-68.499-71.386h-550.464c-18.569 0-39.614 7.841-55.292 21.046-17.333 14.028-27.235 32.598-27.235 50.752v552.525c0 18.568 9.902 38.375 27.235 54.469 16.504 15.679 37.136 25.17 55.704 25.17h296.69c11.14 0 19.806 7.841 19.806 18.569 0.001 10.73-8.665 18.158-19.806 18.158zM917.419 595.959c27.233 27.647 27.646 76.752 0 103.987l-89.956 90.368c-12.379 12.792-30.949 20.219-50.755 20.219-18.981 0-37.55-7.427-50.755-19.807l-73.036-86.655-389.945-373.44-25.174-218.699 7.018-6.189 212.92 28.887 372.614 390.77 87.069 70.559zM753.189 763.079c6.189 6.189 14.441 9.492 23.52 9.492s17.332-3.303 23.521-9.492l89.954-89.955c12.792-12.792 12.792-34.25 0-47.042l-56.943-56.946-136.585 137 56.533 56.943zM285.665 153.196l7.841 128.745 118.84-118.841-126.681-9.904zM799.404 545.618l-356.108-358.997-128.332 128.741 359.41 358.175 126.269-126.268-1.239-1.651z" />
<glyph unicode="&#xe616;" glyph-name="sousuo" d="M1009.832-50.376l-233.123 233.050c61.092 74.615 98.117 170.994 98.117 276.020 0 241.517-195.789 437.306-437.306 437.306-0.041 0-0.083 0-0.124 0h0.007c-0.022 0-0.047 0-0.073 0-241.517 0-437.306-195.789-437.306-437.306 0-0.026 0-0.052 0-0.077v0.004c0-0.027 0-0.059 0-0.091 0-241.517 195.789-437.306 437.306-437.306 104.563 0 200.555 36.698 275.798 97.918l-0.801-0.631 233.123-233.123c8.211-8.269 19.585-13.388 32.155-13.388s23.944 5.119 32.152 13.385l0.003 0.003c8.234 8.227 13.327 19.596 13.327 32.155s-5.093 23.928-13.326 32.155v0zM575.742 131.007c-43.848-18.562-90.326-27.843-138.339-27.843-0.183 0-0.4-0.001-0.618-0.001-146.237 0-271.81 88.472-326.115 214.812l-0.882 2.307c-17.604 40.538-27.845 87.756-27.845 137.365 0 0.342 0 0.685 0.001 1.027v-0.053c0 0.198-0.001 0.432-0.001 0.666 0 146.224 88.475 271.784 214.812 326.066l2.307 0.882c40.538 17.604 87.756 27.845 137.365 27.845 0.342 0 0.685 0 1.027-0.001h-0.053c0.183 0 0.4 0.001 0.618 0.001 146.237 0 271.81-88.472 326.115-214.812l0.882-2.307c18.562-43.848 27.843-90.326 27.843-138.339 0-0.198 0.001-0.432 0.001-0.666 0-146.224-88.475-271.784-214.812-326.066l-2.307-0.882z" />
<glyph unicode="&#xe617;" glyph-name="wodetuiguangma" d="M845.612 888.297h-662.254c-95.443 0-172.912-77.633-172.912-172.914v-662.25c0-95.447 77.637-172.912 172.912-172.912h662.42c95.277 0 172.912 77.633 172.912 172.912v662.25c-0.164 95.281-77.633 172.914-173.078 172.914zM182.856 699.757c3.697 10.082 10.085 17.308 20.501 20.499h265.673c27.055-2.687 20.501-50.244 20.501-81.162v-147.038c0-31.926 6.049-71.077-15.122-80.153-13.781-5.881-50.75-1.851-68.563-1.851h-140.989c-32.598 0-76.961-7.73-82.002 20.503v269.202zM467.181 48.092h-262.984c-10.923 3.361-18.316 10.251-21.341 21.343v268.362c2.519 7.898 8.57 16.972 17.812 19.659 17.474 4.873 45.875 0.842 66.88 0.842h136.451c20.163 0 49.57 4.537 67.718-0.842 24.702-7.226 17.81-52.599 17.81-84.693v-141.827c0.002-34.616 7.396-79.819-22.347-82.844zM719.579 48.092h-64.194c0.67 22.851-1.178 48.060 0.84 69.569h63.351v-69.569h0.002zM846.114 72.124c-2.521-12.605-9.914-20.335-21.341-24.032h-45.541c0.672 22.851-1.176 48.060 0.84 69.569h66.040v-45.537h0.002zM846.114 259.322c-2.019-25.208-0.336-54.447-0.84-81.162h-189.886v43.691c-17.81 2.014-39.49 0.334-58.812 0.838-2.016-56.462-0.336-116.791-0.84-174.765h-34.784c-29.911 6.049-21.341 50.916-21.341 86.543v138.13c0 20.837-4.203 51.925 0.84 68.563 6.047 19.997 32.43 16.972 58.812 16.972h129.226v-118.637h59.652c0.672 39.154-1.178 80.828 0.84 118.637 28.735 1.68 55.283 1.344 57.134-24.032v-74.778zM846.114 434.085c-2.353-10.927-8.066-20.169-18.653-23.19-17.308-4.873-46.045-0.842-66.882-0.842h-136.447c-20.503 0-51.087-4.369-67.723 0.842-23.524 7.39-16.97 53.435-16.97 85.531v137.29c0 37.139-8.236 81.334 20.501 86.541h265.673c10.753-4.033 18.316-11.425 20.501-24.028v-262.144zM239.99 297.635v-191.739h191.735v194.426h-190.895c-1.008-0.166-1.008-1.346-0.84-2.687zM297.794 214.791c3.865 14.615 14.788 25.54 33.944 27.557 28.571 3.195 52.095-24.198 41.004-54.445-15.292-41.672-88.558-25.876-74.948 26.889zM239.99 468.027h191.735v194.258h-190.895c-1.008-0.17-1.008-1.346-0.84-2.693v-191.565zM327.203 603.468c26.716 5.043 47.724-12.939 48.058-37.471 0.672-32.264-32.262-49.91-57.974-36.467-29.071 15.292-27.221 66.882 9.917 73.938zM596.575 659.591v-191.733h191.733v194.426h-190.895c-1.008-0.168-1.008-1.346-0.838-2.693zM683.786 603.468c62.847 11.763 61.669-87.885 0-77.633-39.151 6.554-40.498 70.073 0 77.633z" />
<glyph unicode="&#xe618;" glyph-name="uniE618" d="M1006.003-111q2-7 2-13 0-18-13-31t-31.5-13-31.5 13-13 31h-1q-9 141-111.5 238t-244.5 97-244.5-97-111.5-238h-1q0-18-13-31t-31.5-13-31.5 13-13 31q0 6 2 12 9 126 82.5 227t186.5 150q-53 38-84 97t-31 128q0 115 82 196.5t197 81.5 197-81.5 82-196.5q0-66-29-123.5t-79-96.5q119-46 196.5-148.5t87.5-232.5zM740.003 489.5q0 78.5-55.5 134t-134 55.5-134-55.5-55.5-134 55.5-134 134-55.5 134 55.5 55.5 134z" />
<glyph unicode="&#xe619;" glyph-name="daifahuo" d="M825.82 794.194h-627.64c-73.958 0-134.118-60.861-134.118-135.629v-549.125c0-74.798 60.16-135.629 134.118-135.629h627.64c73.958 0 134.118 60.831 134.118 135.629v549.125c0 74.767-60.16 135.629-134.118 135.629zM901.12 125.742c0-49.577-40.284-89.902-89.784-89.902h-598.676c-49.5 0-89.779 40.325-89.779 89.902v516.516c0 49.577 40.279 89.902 89.779 89.902h598.676c49.5 0 89.784-40.325 89.784-89.902v-516.516zM310.907 224.942h-95.13c-11.059 0-19.994-11.464-19.994-25.6 0-14.141 8.94-25.6 19.994-25.6h95.13c11.059 0 19.999 11.459 19.999 25.6-0.005 14.131-8.94 25.6-19.999 25.6zM405.975 321.27h-190.198c-11.059 0-19.994-11.459-19.994-25.6s8.94-25.6 19.994-25.6h190.203c11.059 0 19.999 11.459 19.999 25.6s-8.94 25.6-20.004 25.6zM691.308 723.625c-11.059 0-30.239-8.965-30.239-20.024l5.12-221.517-19.85 10.634c-3.029 1.939-6.723 3.091-10.687 3.091-3.739 0-7.238-1.025-10.233-2.809l0.092 0.051-49.659-29.189-49.495 29.158c-2.91 1.728-6.415 2.749-10.158 2.749-3.704 0-7.174-1-10.156-2.744l0.095 0.051-50.555-29.384-50.775 29.327c-2.872 1.677-6.323 2.668-10.005 2.668-3.7 0-7.167-1-10.145-2.745l0.095 0.051-26.107-13.061 0.43 226.207c-0.169 10.921-19.348 19.635-30.239 19.635h-0.394c-10.876-0.219-19.609-9.087-19.609-19.995 0-0.149 0.002-0.298 0.005-0.446v0.022l0.184-275.61c0.113-7.096 9.144-13.573 15.288-17.065 2.831-1.613 6.219-2.566 9.829-2.57h0.001c3.461 0 6.984 0.922 10.056 2.708l50.668 29.496 50.775-29.327c6.144-3.574 13.798-3.543 20.055 0.031l50.442 29.327 49.546-29.215c6.262-3.686 14.080-3.686 20.337 0l49.27 28.995 45.353-28.657c3.029-1.94 6.725-3.092 10.689-3.092 3.539 0 6.864 0.918 9.749 2.529l-0.102-0.052c6.364 3.517 15.457 10.25 15.457 17.541l-5.12 273.208c0 0.003 0 0.007 0 0.010 0 11.051-8.958 20.009-20.009 20.009v0z" />
<glyph unicode="&#xe61a;" glyph-name="zhaopianqiang" horiz-adv-x="1297" d="M1287.926 704.658c-6.984 9.331-17.331 15.814-29.212 17.653l-0.252 0.032-119.301 17.361-21.757 119.252c-3.933 21.195-22.278 37.031-44.322 37.031-2.771 0-5.483-0.25-8.116-0.729l0.275 0.042-436.934-81.286-339.861 49.486c-1.917 0.291-4.129 0.457-6.379 0.457-22.604 0-41.296-16.748-44.345-38.511l-0.027-0.236-12.282-85.992-188.695-35.046c-12.059-2.27-22.201-9.135-28.733-18.669l-0.098-0.152c-4.938-7.196-7.885-16.093-7.885-25.679 0-2.91 0.272-5.756 0.791-8.515l-0.044 0.284 135.412-742.285c2.253-12.088 9.043-22.281 18.499-28.947l0.143-0.096c7.067-5.073 15.892-8.112 25.427-8.112 0.005 0 0.010 0 0.014 0h-0.001c2.888 0.030 5.688 0.324 8.401 0.859l-0.289-0.047 601.081 111.789 356.119-51.919c1.949-0.308 4.198-0.484 6.488-0.487h0.002c22.556 0.109 41.175 16.822 44.266 38.538l0.028 0.239 13.11 91.508 7.463 1.46c21.065 4.136 36.739 22.452 36.739 44.43 0 2.935-0.28 5.805-0.814 8.585l0.045-0.284-20.038 109.68 63.601 444.722c0.29 1.931 0.455 4.159 0.455 6.425 0 10.23-3.369 19.673-9.058 27.28l0.085-0.119zM1182.059 504.606l-40.075-280.040-12.071-84.856-13.515-94.428-2.401-16.712-881.137 128.338 72.2 505.079 13.499 94.591 1.622 11.033 881.234-128.338zM1037.399 798.113l8.112-44.78-139.777 20.281zM96.992 623.371l114.92 21.417-52.195-365.221zM216.196-30.002l-18.334 100.594 314.064-45.754zM514.327 467.126c3.686-0.587 7.936-0.922 12.264-0.922 45.305 0 82.033 36.727 82.033 82.033s-36.727 82.033-82.033 82.033c-41.122 0-75.176-30.257-81.115-69.723l-0.056-0.452c-0.595-3.699-0.935-7.964-0.935-12.309 0-40.898 30.125-74.759 69.395-80.605l0.446-0.055zM1009.687 390.058l-81.708-85.505-102.979 204.919-195.736-226.985s-233.134 132.719-303.907-48.512l716.261-109.193z" />
<glyph unicode="&#xe61b;" glyph-name="fenlei" d="M315.904 759.416h-291.271c-17.476 0-29.127 11.651-29.127 29.127v0c0 17.476 11.651 29.127 29.127 29.127h291.271c17.476 0 29.127-11.651 29.127-29.127v0c0-17.476-11.651-29.127-29.127-29.127zM315.904 351.637h-291.271c-17.476 0-29.127 11.651-29.127 29.127v0c0 17.476 11.651 29.127 29.127 29.127h291.271c17.476 0 29.127-11.651 29.127-29.127v0c0-17.476-11.651-29.127-29.127-29.127zM956.7-59.056h-932.068c-17.476 0-29.127 11.651-29.127 29.127v0c0 17.476 11.651 29.127 29.127 29.127h932.068c17.476 0 29.127-11.651 29.127-29.127v0c0-14.564-11.651-29.127-29.127-29.127zM1006.217 208.914l-171.85 171.85c64.080 49.516 107.77 131.072 107.77 218.453 0 154.374-125.247 276.708-276.708 276.708s-276.708-125.247-276.708-276.708 125.247-276.708 276.708-276.708c40.778 0 81.556 8.738 116.508 26.214l183.501-183.501c11.651-11.651 29.127-11.651 40.778 0v0c11.651 14.564 11.651 32.040 0 43.691zM446.976 599.217c0 122.334 99.032 218.453 218.453 218.453s218.453-99.032 218.453-218.453-99.032-218.453-218.453-218.453-218.453 99.032-218.453 218.453z" />
<glyph unicode="&#xe61c;" glyph-name="pingjia" d="M926.148 102.438h-311.943l-3.294-199.326c-0.079-12.29-7.27-22.882-17.66-27.873l-0.187-0.081c-3.679-1.85-8.017-2.933-12.608-2.933-7.533 0-14.386 2.917-19.489 7.682l0.017-0.015-254.787 222.611h-208.537c-53.574 0-97.232 44.81-97.232 100.175v593.148c0 55.205 43.659 100.175 97.232 100.175h828.489c53.734 0 97.392-44.97 97.392-100.175v-593.244c0-55.333-43.659-100.143-97.392-100.143zM962.643 795.825c0 20.694-16.376 37.582-36.558 37.582h-828.425c-20.022 0-36.398-16.888-36.398-37.582v-593.244c0-20.79 16.376-37.486 36.398-37.486h219.508c7.26 0 14.201-2.751 19.702-7.484l214.263-187.524 2.655 164.175c0.48 17.048 13.881 30.833 30.417 30.833h341.88c20.182 0 36.558 16.696 36.558 37.486v593.244zM782.027 401.363c-34.319 0-62.177 28.274-62.177 63.169 0 34.863 27.858 63.137 62.177 63.137 34.351 0 62.177-28.274 62.177-63.137 0-34.895-27.826-63.169-62.177-63.169zM506.771 401.363c-34.319 0-62.177 28.274-62.177 63.169 0 34.863 27.858 63.137 62.177 63.137 34.351 0 62.177-28.274 62.177-63.137 0-34.895-27.826-63.169-62.177-63.169zM236.631 401.363c-34.351 0-62.177 28.274-62.177 63.169 0 34.863 27.826 63.137 62.177 63.137 34.319 0 62.177-28.274 62.177-63.137 0-34.895-27.858-63.169-62.177-63.169z" />
<glyph unicode="&#xe61d;" glyph-name="nansheng1" d="M325.14 201.018c0-21.127 17.126-38.253 38.253-38.253s38.253 17.126 38.253 38.253v0c0 21.126-17.126 38.252-38.252 38.252s-38.252-17.126-38.252-38.252v0zM644.312 201.018c0-21.126 17.126-38.252 38.252-38.252s38.252 17.126 38.252 38.252v0c0 21.126-17.126 38.252-38.252 38.252s-38.252-17.126-38.252-38.252v0zM986.339 466.46s-11.265 96.598-63.065 152.632c0 0 36.417 19.617-2.795 53.208 0 0-34.983 8.403-42.009 5.586 0 0-18.172 61.635-54.588 77.038 0 0-30.827 7.476-37.851-22.41 0 0-81.874 41.654-141.082 52.172 0 0-151.189 29.056-191.787 99.406 0 0-8.768 17.844-37.437 7.359 0 0-27.355-21.696-18.969-108.514 0 0 2.337-17.754-114.366 56.931 0 0-28.921 7.464-37.305-14.925 0 0-14.9-53.206 3.726-92.428 0 0-67.201-12.122-96.19-41.077 0 0-32.622-42.017 22.404-48.549 0 0-82.084-46.675-96.144-178.293 0 0-1.642-92.348 27.964-194.791-4.755-12.224-7.51-26.374-7.51-41.167 0-4.449 0.249-8.839 0.734-13.158l-0.048 0.53c5.782-53.479 47.103-95.894 100.601-103.402 16.878-51.355 45.686-98.405 85.021-137.738 66.068-66.070 153.911-102.455 247.346-102.455s181.28 36.385 247.347 102.455c40.176 40.176 69.35 88.409 86.067 141.048 51.599 6.609 92.766 46.003 101.063 97.528 4.023 24.998-0.193 49.714-10.959 71.104 18.408 54.065 34.363 120.846 29.831 181.911zM193.216 130.41c-41.408 9.889-72.512 44.505-77.142 87.339-0.371 3.249-0.583 7.014-0.583 10.829 0 4.15 0.25 8.242 0.737 12.261l-0.048-0.484c7.459-21.555 16.399-43.21 27.131-64.222 0 0 22.15-22.151 44.986-13.977 1.316-7.787 2.461-13.424 3.74-19.011l-0.451 2.341 1.63-15.077zM532.991-111.442c-158.836 0-292.089 111.573-325.548 260.456l-2.723 25.195c2.619 3.107 5.175 6.812 7.629 11.238 0 0 2.885 103.65 64.5 165.262 0 0 54.135-14.982 123.223 23.344 0 0-28.966-35.484-55.113-54.152 0 0-14.951-36.415 18.673-40.164 0 0 103.618-19.609 207.236 48.549 0 0-5.589-34.545 43.915-24.253 0 0 40.074 0.919 104.526 50.412 0 0 14.017-23.338 66.723 5.579 0 0-1.364-46.185 40.644-117.601 0 0 18.217-29.707 18.217-82.058 0 0 4.783-3.946 11.955-7.403l-4.314-26.801c-41.35-137.3-168.942-237.602-319.543-237.602zM951.528 216.013c-6.772-42.051-38.97-74.72-80.153-82.924 0.768 2.496 1.99 7.481 3.103 12.507l0.432 2.324c12.635-0.706 26.521 5.21 35.779 28.661 0 0 18.735 34.709 37.652 85.135 2.84-8.869 4.477-19.071 4.477-29.656 0-5.666-0.469-11.223-1.371-16.634l0.081 0.587z" />
<glyph unicode="&#xe61e;" glyph-name="zhuanzhang" d="M528.522 879.67c-263.861 0-477.787-213.885-477.787-477.746s213.925-477.788 477.787-477.788 477.748 213.925 477.748 477.788c-0.001 263.862-213.886 477.746-477.748 477.746zM284.328 377.667l-102.839-1.808 181.501 198.181 173.619-196.637-105.603 0.892c0 0-37.583-181.114 153.304-262.538 0 0-275.646 26.208-299.982 261.911zM708.4 269.87l-173.579 196.658 105.56-0.934c0 0 37.583 181.136-153.344 262.561 0 0 275.726-26.206 300.025-261.911l102.838 1.829-181.5-198.204z" />
<glyph unicode="&#xe61f;" glyph-name="history1-copy" d="M511.643 893.704c-281.34 0-509.411-228.070-509.411-509.411s228.070-509.411 509.411-509.411 509.411 228.070 509.411 509.411-228.070 509.411-509.411 509.411zM665.044 714.252c31.972 0 57.888-25.916 57.888-57.888s-25.916-57.888-57.888-57.888c-31.969 0-57.888 25.916-57.888 57.888s25.918 57.888 57.888 57.888zM506.819 729.69c31.972 0 57.888-25.918 57.888-57.888 0-31.972-25.916-57.888-57.888-57.888s-57.888 25.916-57.888 57.888c0 31.969 25.917 57.888 57.888 57.888zM159.493 615.844c0 63.941 51.834 115.775 115.775 115.775s115.775-51.834 115.775-115.775-51.834-115.775-115.775-115.775-115.775 51.834-115.775 115.775zM589.013-9.326c-2.692-0.061-5.493 0.134-8.161 0.513-95.819 13.575-98.475 102.723-87.059 138.4 1.157 3.617 2.084 7.41 2.814 11.303 7.512 40.109-10.667 80.806-42.973 105.735-23.944 18.477-54.281 45.862-78.448 80.715-42.731 61.628-29.561 145.986 32.733 187.739 125.168 83.892 376.49 58.564 379.653-133.681 5.789-351.667-98.567-388.447-198.56-390.725zM803.975 521.294c-31.969 0-57.888 25.916-57.888 57.888 0 31.969 25.918 57.888 57.888 57.888 31.972 0 57.888-25.918 57.888-57.888s-25.916-57.888-57.888-57.888z" />
<glyph unicode="&#xe620;" glyph-name="tixian" d="M534.687 22.2l0.026-0.077-0.113 0.292c0.020-0.067 0.056-0.138 0.087-0.215l-0.159 0.369c-2.798 5.897-5.871 13.519-8.563 21.319l-0.52 1.732c-0.328 0.983-0.671 1.981-0.988 2.98-0.276 0.835-0.532 1.654-0.804 2.504-0.148 0.492-0.307 0.988-0.456 1.495-0.302 0.988-0.609 1.987-0.906 3.005l-0.573 2.022c-0.256 0.84-0.486 1.7-0.727 2.56-0.042-0.14-0.537 1.713-1.014 3.574l-0.425 1.956c-0.2 0.809-0.399 1.613-0.579 2.422-0.015 0.056-0.026 0.118-0.046 0.174-0.2 0.588-0.672 2.627-1.113 4.678l-0.249 1.379c-0.128 0.614-0.266 1.219-0.384 1.843l-0.527 2.606-0.445 2.371c-0.174 1.024-0.379 2.068-0.532 3.092-0.128 0.732-0.256 1.439-0.364 2.176-0.108 0.671-0.225 1.331-0.323 2.002-0.035 0.091-0.155 0.895-0.268 1.7l-0.075 0.655c-0.104 0.558-0.259 1.649-0.395 2.746l-0.045 0.448c-0.175 1.052-0.456 3.34-0.703 5.639l-0.091 1.038c-0.082 0.727-0.148 1.454-0.22 2.176-0.102 0.854-0.253 2.59-0.383 4.333l-0.042 0.7c-0.096 1.014-0.22 2.796-0.322 4.584l-0.026 0.562c-0.026 0.461-0.036 0.906-0.067 1.357-0.215 3.81-0.338 8.268-0.338 12.755 0 0.136 0 0.273 0 0.409v-0.021h-31.939v127.77h-223.621v63.882h223.606v95.831h-223.606v63.877h127.775l-127.775 159.708h95.836l127.775-159.708h63.877l127.775 159.708h95.821l-127.77-159.708h127.77v-63.877h-223.596v-95.836h54.625c2.104 1.859 4.255 3.676 6.436 5.458 2.402 2.004 5.278 4.291 8.204 6.516l0.634 0.462 2.263 1.669c0.799 0.604 1.603 1.178 2.412 1.761 1.48 1.060 2.975 2.099 4.475 3.128 0.456 0.323 0.916 0.63 1.382 0.947 3.277 2.227 6.615 4.372 10.004 6.441 0.404 0.256 0.809 0.492 1.208 0.742 1.367 0.819 2.739 1.628 4.111 2.432 0.399 0.225 0.804 0.471 1.219 0.696 2.247 1.36 5.711 3.266 9.225 5.088l1.358 0.641c0.425 0.225 0.86 0.44 1.29 0.655 1.408 0.712 2.826 1.403 4.255 2.094 0.44 0.215 0.881 0.43 1.321 0.63 2.59 1.323 6.654 3.155 10.777 4.873l1.568 0.579c0.348 0.22 2.259 0.994 4.182 1.744l1.604 0.55c3.871 1.485 7.777 2.877 11.74 4.163 0.261 0.102 0.532 0.174 0.788 0.271 6.496 2.229 14.995 4.566 23.658 6.466l1.701 0.313c1.925 0.394 3.825 0.783 5.75 1.147 0.957 0.184 1.92 0.348 2.877 0.527 0.308 0.113 2.466 0.48 4.631 0.825l1.717 0.225c2.277 0.387 6.112 0.888 9.97 1.309l1.232 0.109 2.954 0.297c0.819 0.087 1.628 0.148 2.452 0.215 1.478 0.147 3.724 0.312 5.981 0.438l0.511 0.023c0.717 0.046 1.449 0.092 2.171 0.128 2.074 0.097 4.147 0.174 6.226 0.236l0.63 0.010c1.839 0.041 4.006 0.064 6.178 0.064 2.339 0 4.672-0.027 6.999-0.081l-0.346 0.006c2.14-0.061 4.26-0.138 6.369-0.251 0.471-0.026 0.922-0.061 1.393-0.092l2.33-0.128c4.156-0.262 7.603-0.565 11.028-0.943l-1.038 0.093c2.98-0.312 5.924-0.666 8.858-1.080 1.060-0.159 2.109-0.307 3.164-0.471 0.788-0.113 1.577-0.236 2.365-0.369 0.691-0.108 1.336-0.215 2.007-0.338 0.957-0.148 1.905-0.323 2.872-0.497 0.783-0.159 1.577-0.297 2.355-0.44 0.993-0.2 1.981-0.389 2.98-0.604 0.686-0.133 1.377-0.271 2.048-0.435 5.134-1.058 8.604-1.892 12.045-2.798l-1.728 0.387c1.029-0.256 2.033-0.532 3.052-0.804 2.033-0.548 4.045-1.121 6.057-1.72 1.014-0.302 2.012-0.599 3.011-0.916 6.163-1.893 10.521-3.424 14.822-5.071l-1.694 0.57c1.085-0.42 2.191-0.829 3.277-1.254 0.87-0.333 1.736-0.671 2.591-1.014 1.331-0.527 2.637-1.075 3.948-1.618 59.78-25.675 106.807-71.541 133.346-128.833l0.66-1.589c14.366 44.885 22.646 96.516 22.646 150.081 0 0.074 0 0.149 0 0.223v-0.012c0 282.373-228.71 511.083-511.068 511.083-282.363 0-511.073-228.705-511.073-511.083-0.005-282.353 228.7-511.063 511.063-511.063 0.079 0 0.174 0 0.268 0 53.547 0 105.16 8.278 153.629 23.624l-3.6-0.984c-56.776 26.225-101.364 70.796-126.95 125.972l-0.661 1.588zM959.191 127.534c0 105.759-85.893 191.652-191.657 191.652s-191.657-85.888-191.657-191.652c0-105.764 85.893-191.657 191.657-191.657s191.657 85.893 191.657 191.657zM767.534-0.241v95.836h-127.77v63.882h127.77v95.831l127.77-127.77-127.77-127.78z" />
<glyph unicode="&#xe621;" glyph-name="yiwen" d="M491 853q-100 0-191-38.5t-156.5-104.5-104.5-157-39-190.5 39-190.5 104.5-157 156.5-104.5 191-38.5 191 38.5 156.5 104.5 104.5 157 39 190.5-39 190.5-104.5 157-156.5 104.5-191 38.5zM539 79q0-10-7.5-17t-17.5-7h-74q-10 0-17 7t-7 17v74q0 10 7 17t17 7h74q10 0 17.5-7t7.5-17v-74zM660 417q-10-15-60-54l-31-21q-27-21-34-41-2-8-3-24-1-4-4.5-9t-10.5-5h-80q-16 0-15 15 3 59 18 77 12 14 34 32t38 28l16 11q14 11 22 23 19 26 19 47 0 30-17 54.5t-63 24.5q-45 0-64-30-15-23-18-44-3-16-15-16h-78q-11 0-16 5.5t-4 10.5q9 96 77 139 46 29 113 29 88 0 146.5-42t58.5-125q0-46-29-85z" />
<glyph unicode="&#xe622;" glyph-name="home" d="M299-25q-12 5-13 5-37 10-60.5 39.5t-23.5 67.5q-1 51 0 261 0 16 7 25t19.5 8.5 20-9.5 7.5-24v-245q0-39 16.5-55.5t55.5-16.5h369q36 0 52.5 16.5t16.5 53.5v240q0 20 4 24 16 15 29 15 10-1 16-8.5t6-19.5v-177q0-74-1-82 0-44-23-73t-65-41l-9-4h-424zM505 748q-13-20-14-21-117-117-374-372-13-13-20.5-13.5t-18.5 10.5-11 18.5 11 19.5l4 4q341 338 401 398 15 15 28 15t29-15q243-243 401-400 14-13 14.5-20.5t-11.5-19.5q-18-19-37 0-3 4-34 35-261 259-344 342-1 1-12 19h-12z" />
<glyph unicode="&#xe623;" glyph-name="gou" d="M958 660l-27 29-545-558-301 315-22-22 329-344 21 22z" />
<glyph unicode="&#xe624;" glyph-name="02" d="M722 775q-67 0-123.5-34t-86.5-91v0q-30 57-86.5 91t-123.5 34q-98 0-167.5-68.5t-69.5-164.5q0-56 15-104.5t62-105.5q63-78 370-338v0q308 262 370 338 47 57 62 105.5t15 104.5q0 96-69.5 164.5t-167.5 68.5zM859 350q-59-72-345-316v0l-2-2q-287 245-347 318-44 54-57 98t-13 94q0 84 60.5 143.5t146.5 59.5q58 0 107.5-29t76.5-80l26-49 26 49q27 51 76.5 80t107.5 29q86 0 146.5-59.5t60.5-143.5q0-50-13-94t-57-98z" />
<glyph unicode="&#xe625;" glyph-name="wujiaoxing" horiz-adv-x="1074" d="M537 896l-161-344-376-47 276-260-71-373 332 183 332-183-72 373 277 260-376 47z" />
<glyph unicode="&#xe626;" glyph-name="aixin" d="M723 768q-40 0-77-10.5t-60.5-26-41-30.5-25.5-26l-7-11q-3 5-9 12t-25.5 24.5-42.5 31.5-60.5 25-78.5 11q-51 0-93.5-23.5t-67.5-61-38.5-82-13.5-89.5q0-40 8.5-79t35.5-93.5 72-107 125.5-115 187.5-120.5q107 58 187 120.5t125 115 72.5 107.5 36 94.5 8.5 78.5q0 45-14 89.5t-40 82-69 60.5-95 23z" />
<glyph unicode="&#xe627;" glyph-name="shoucang" horiz-adv-x="1179" d="M142.319 355.733l350.136-373.654c54.297-63.853 139.806-63.884 195.033 1.055l362.205 388.671c42.662 48.867 65.466 112.13 65.466 182.902-0.011 154.211-125.027 279.22-279.24 279.22-90.102 0-170.236-42.674-221.295-108.914l-0.483-0.652c-5.722-7.415-14.611-12.145-24.605-12.145-0.327 0-0.653 0.005-0.978 0.015l0.047-0.001c-0.268-0.008-0.583-0.013-0.9-0.013-9.994 0-18.883 4.73-24.551 12.072l-0.053 0.072c-51.541 66.915-131.69 109.607-221.809 109.607-154.22 0-279.24-125.020-279.24-279.24 0-0.007 0-0.014 0-0.022v0.001c0-72.851 28.793-144.243 77.411-195.499 1.055-1.117 1.986-2.265 2.854-3.475zM87.712 323.806c-54.294 61.192-87.518 142.148-87.712 230.86v0.040c0 188.487 152.806 341.293 341.293 341.293 95.066 0 183.709-39.156 247.313-106.111 62.171 65.418 149.823 106.111 246.98 106.111 0.128 0 0.256 0 0.384 0h-0.020c188.487 0 341.293-152.806 341.293-341.293 0-80.793-25.070-154.637-72.199-213.463-1.148-1.924-2.482-3.754-4.096-5.492l-5.181-5.554c-2.699-3.072-5.492-6.112-8.315-9.091-0.621-0.621-1.21-1.241-1.862-1.8l-351.78-377.377c-79.056-93.049-209.554-93.018-287.617-1.148l-355.41 379.177c-1.096 1.156-2.115 2.412-3.034 3.743l-0.068 0.104z" />
<glyph unicode="&#xe628;" glyph-name="gouwuche" horiz-adv-x="1484" d="M1278.544 701.407c-17.372 24.629-45.776 39.3-75.947 39.3h-856.543l-29.181 133.951c-0.194 0.88-0.795 1.535-1.047 2.379-0.587 1.827-1.388 3.523-2.332 5.192-0.83 1.54-1.775 2.975-2.856 4.315-1.19 1.388-2.42 2.53-3.872 3.672-1.44 1.14-2.824 2.125-4.468 2.967-1.522 0.845-3.062 1.4-4.754 1.938-1.875 0.592-3.719 0.948-5.699 1.13-0.835 0.058-1.59 0.503-2.469 0.503h-120.37c-15.555 0-28.142-12.528-28.142-28.092 0-15.51 12.581-28.046 28.142-28.046h97.728l29.186-133.852 88.218-446.277c12.13-61.227 66.242-105.7 128.692-105.7h520.477c55.417 0 105.057 35.054 123.648 87.177l133.299 374.685c10.061 28.459 5.763 60.126-11.712 84.758zM1237.308 635.521l-133.306-374.71c-10.615-29.766-39.011-49.804-70.682-49.804h-520.48c-35.675 0-66.609 25.382-73.544 60.371l-81.667 413.19h844.993c12.125 0 23.061-5.697 30.011-15.563l0.010 0.008c7.045-9.901 8.69-22.103 4.665-33.493zM503.411 82.173c-45.223 0-82.005-36.742-82.005-81.917 0-45.181 36.787-81.947 82.005-81.947 45.247 0 82.046 36.76 82.046 81.947 0 45.181-36.791 81.917-82.046 81.917zM503.406-45.967c-25.485 0-46.234 20.723-46.234 46.232 0 25.469 20.738 46.187 46.234 46.187 25.52 0 46.282-20.718 46.282-46.187-0.002-25.491-20.76-46.232-46.282-46.232zM1004.837 79.206c-45.224 0-82.005-36.744-82.007-81.917 0-45.181 36.786-81.947 82.007-81.947 45.247 0 82.044 36.758 82.044 81.947 0 45.182-36.789 81.917-82.044 81.917zM1004.831-48.936c-25.487 0-46.234 20.725-46.234 46.234 0 25.469 20.738 46.185 46.234 46.185 25.52 0 46.281-20.715 46.281-46.185 0.002-25.491-20.755-46.234-46.281-46.234z" />
<glyph unicode="&#xe629;" glyph-name="iconpaimai01" d="M952 58l-341 358q-6 6-6 15t6 15l21 21q6 6 15 6l54-1q9 0 16 7l65 65q6 7 6 16t-6 15l-239 241q-6 7-15 7t-16-7l-64-65q-7-7-7-16l1-55q0-9-6-16l-195-197q-7-6-16-6h-55q-9 0-16-7l-64-64q-6-7-6-16t6-15l239-241q6-7 15-7t16 7l65 66q6 6 6 15l-1 55q0 9 7 16l33 33q7 7 16 7t15-7l353-345q4-4 10-5l43-9q12-3 20 6l33 32q8 9 6 20l-9 45q-1 6-5 11zM900-16l-25 6q-6 1-10 6l-358 363q-7 6-16 6t-15-6l-76-77q-7-7-6-16v-30q0-9-6-15l-40-41q-7-7-16-7t-15 7l-166 167q-6 6-6 15t6 15l40 40q6 7 16 7h30q9 0 16 6l219 222q7 7 7 16l-1 30q0 9 6 16l41 40q6 7 15 7t16-7l165-167q6-6 6-15t-6-15l-41-41q-6-7-16-7l-29 1q-9 0-16-6l-64-65q-6-6-6-15t6-16l361-363q4-5 5-11l5-25q2-11-6-19v0q-9-9-20-6zM70 1h338q5 0 8.5-3.5t3.5-9.5v-26q0-5-3.5-9t-8.5-4h-338q-5 0-9 4t-4 9v26q0 6 4 9.5t9 3.5z" />
<glyph unicode="&#xe62a;" glyph-name="remenzhuanti" d="M823-128h-622q-83 0-142 59t-59 142v622q0 83 59 142t142 59h623q82 0 141-59t59-142v-623q0-82-59-141t-142-59zM201 859q-68 0-116-48t-48-116v-623q0-67 48-115t116-48h623q67 0 115 48t48 115v623q0 68-48 116t-115 48h-623zM344 206q-6 0-11 4-11 7-7 20l63 194-165 120q-11 8-6.5 20.5t17.5 12.5h204l63 194q4 13 18 13v0q13 0 17-13l63-194h204q13 0 17.5-12.5t-6.5-20.5l-165-120 63-194q4-13-7-20.5t-21 0.5l-165 119-165-119q-5-4-11-4zM292 540l130-94q11-8 7-21l-50-152 130 94q11 8 21 0l130-94-49 152q-5 13 6 21l130 94h-160q-14 0-18 13l-49 152-50-152q-4-13-18-13h-160zM1006 54h-988q-7 0-12.5 5.5t-5.5 13 5.5 13 12.5 5.5h987q8 0 13.5-5.5t5.5-13-5.5-13-12.5-5.5zM512 24l7-22h24l-19-14 7-22-19 14-19-14 7 22-19 14h24zM432-27h-207q-5 0-9 4t-4 9 4 8.5 9 3.5h207q5 0 9-3.5t4-8.5-4-9-9-4zM799-27h-207q-5 0-9 4t-4 9 4 8.5 9 3.5h207q5 0 9-3.5t4-8.5-4-9-9-4z" />
<glyph unicode="&#xe62b;" glyph-name="weixin" d="M782 321q-16 0-27.5 11.5t-11.5 28 11.5 28 27.5 11.5 27.5-11.5 11.5-28-11.5-28-27.5-11.5zM582 321q-16 0-27.5 11.5t-11.5 28 11.5 28 27.5 11.5 27.5-11.5 11.5-28-11.5-28-27.5-11.5zM960 265q0 95-74 164.5t-182 75.5q-12 1-20 1-115 0-196-70.5t-81-170.5q0-29 8-58 23-79 97.5-131t171.5-52q65 0 123 25l63.5-43t4-1.5 4.5 0 3.5 4 1.5 9.5l-18 66q44 34 69 81t25 100zM260 536q-16 0-27.5 11.5t-11.5 27.5 11.5 27.5 27.5 11.5 27.5-11.5 11.5-27.5-11.5-27.5-27.5-11.5zM504.5 614q16.5 0 27.5-11.5t11-27.5-11-27.5-27.5-11.5-27.5 11.5-11 27.5 11 27.5 27.5 11.5zM684 526q6 0 17-1-17 102-107 170t-209 68q-87 0-161-37t-117-101.5-43-139.5q0-64 30.5-119.5t84.5-94.5l-24-89q0-1-0.5-3t-0.5-7 2.5-6.5 7-3 14.5 2.5l88 61q57-20 119-20h10q-8 29-8 59 0 108 87 184.5t210 76.5v0z" />
<glyph unicode="&#xe62c;" glyph-name="qq" d="M209 427l-2 5-1 7-1 4v14l2 6 1 6 3 7 2 7 4 8 5 7v5l1 5 1 7 2 7 2 9 2 3 4 8 3 2v19l1 10 2 11 3 13 6 21 3 9 3 7 4 8 4 10 4 8 5 9 6 9 3 5 3 4 14 20 7 9 9 10 9 9 9 10 11 10 8 7 8 6 9 7 10 5 9 5 22 10 11 4 11 3 12 4 11 3 26 4 12 2 13 2h52l13-1 13-2 14-1 12-3 26-6 26-8 12-5 12-6 12-5 22-14 9-6 5-4 4-3 9-7 15-15 7-8 6-8 7-8 5-9 5-8 6-9 4-8 7-17 4-9 3-8 3-9 2-8 2-7 2-9 4-15 3-13 2-12 1-10 2-16 1-2 2-3 5-8 3-5 2-6 4-6 3-7 7-28 1-6v-4l-1-4v-6l-1-5-3-10-2-5-2-6v-3l3-5 12-17 9-13 4-8 6-10 5-10 6-11 13-26 4-9 3-8 3-9 3-8 2-9 3-8 2-15 3-16 1-14v-19l-1-7-1-12-2-11-4-10-1-4-6-12-3-2-2-4-5-5-4-1-3-2h-8l-4 3-4 2-9 9-8 12-3 5-4 6-5 10-5 11-1 1h-1l-2-2-4-6-3-11-6-15-7-17-6-9-6-10-14-20-3-5-15-15 2-2 5-3 22-11 18-10 9-7 12-9 2-4 6-8 1-4 2-4v-4l1-4-1-3v-6l-2-3v-2l-2-3-4-5-3-5-3-3-3-2-5-5-7-3-7-4-8-3-9-4-8-2-10-3-10-2-22-4h-12l-11-2h-37l-14 1-12 1-13 2-13 1-14 2-14 4-13 2-13 4-14 5-13 4-7 2-6 2-4 2-4 1h-11l-12 1h-7l-8 1-5-5-7-4-10-5-11-6-7-3-6-3-16-6-28-7h-8l-16-2h-71l-22 2-22 4-10 1-10 2-10 3-9 2-9 4-8 3-8 4-6 4-7 4-2 3-5 5-4 6-5 15v3l1 4v4l1 3v11l2 5 1 4 3 5 2 2 1 3 4 5 3 2 4 2 2 2 5 2 3 2 15 6 12 2h7l7 1 2 1h1v1l-1 2-4 2-10 8-6 5-8 7-7 7-8 10-9 10-8 12-4 7-3 7-5 7-3 8-4 9-3 9-3 8-2 11h-2v1h-1l-2-1h-1l-1-2v-2l-1-2-1-3-5-8-2-5-4-4-3-5-5-6-14-14-6-3-6-4-5-2-7-2h-10l-1 3-2 1-2 6-4 8-2 10-2 11-1 7v22l1 16 1 8 2 9 1 9 3 8 6 20 3 9 4 10 5 9 5 11 5 9 7 11 7 9 7 10 6 8 7 8 23 23 7 5 11 10 8 6z" />
<glyph unicode="&#xe62d;" glyph-name="rili" d="M276-6q-57 0-101 42t-44 96v396q0 55 41.5 95t98.5 40q9 0 15.5-6.5t6.5-15.5-6.5-15.5-15.5-6.5q-39 0-67.5-27t-28.5-64v-396q0-36 31-65t70-29h509q35 0 58.5 27t23.5 67v396q0 38-26 64.5t-63 26.5q-9 0-15.5 6.5t-6.5 15.5 6.5 15.5 15.5 6.5q56 0 94.5-39t38.5-96v-396q0-59-36-98.5t-90-39.5h-509zM300 398q-9 0-15.5 6.5t-6.5 16 6.5 16 15.5 6.5h55q9 0 15.5-6.5t6.5-16-6.5-16-15.5-6.5h-55zM484 398q-9 0-15.5 6.5t-6.5 16 6.5 16 15.5 6.5h55q9 0 15.5-6.5t6.5-16-6.5-16-15.5-6.5h-55zM686 398q-9 0-15.5 6.5t-6.5 16 6.5 16 15.5 6.5h56q9 0 15.5-6.5t6.5-16-6.5-16-15.5-6.5h-56zM300 288q-9 0-15.5 6.5t-6.5 15.5 6.5 15.5 15.5 6.5h55q9 0 15.5-6.5t6.5-15.5-6.5-15.5-15.5-6.5h-55zM484 288q-9 0-15.5 6.5t-6.5 15.5 6.5 15.5 15.5 6.5h55q9 0 15.5-6.5t6.5-15.5-6.5-15.5-15.5-6.5h-55zM686 288q-9 0-15.5 6.5t-6.5 15.5 6.5 15.5 15.5 6.5h56q9 0 15.5-6.5t6.5-15.5-6.5-15.5-15.5-6.5h-56zM300 178q-9 0-15.5 6.5t-6.5 15.5 6.5 15.5 15.5 6.5h55q9 0 15.5-6.5t6.5-15.5-6.5-15.5-15.5-6.5h-55zM484 178q-9 0-15.5 6.5t-6.5 15.5 6.5 15.5 15.5 6.5h55q9 0 15.5-6.5t6.5-15.5-6.5-15.5-15.5-6.5h-55zM686 178q-9 0-15.5 6.5t-6.5 15.5 6.5 15.5 15.5 6.5h56q9 0 15.5-6.5t6.5-15.5-6.5-15.5-15.5-6.5h-56zM263 619q-9 0-15.5 6.5t-6.5 15.5 6.5 15.5 15.5 6.5h497q9 0 15.5-6.5t6.5-15.5-6.5-15.5-15.5-6.5h-497zM355 564q-9 0-15.5 6.5t-6.5 15.5v110q0 10 6.5 16.5t15.5 6.5 15.5-6.5 6.5-16.5v-110q0-9-6.5-15.5t-15.5-6.5zM686.5 564q-9.5 0-16 6.5t-6.5 15.5v110q0 10 6.5 16.5t16 6.5 16-6.5 6.5-16.5v-110q0-9-6.5-15.5t-16-6.5z" />
<glyph unicode="&#xe62e;" glyph-name="yanjing" d="M1024 384q0-30-24-69.5t-70.5-81-107-76.5-142.5-57.5-168-22.5q-84 0-165 22t-142 57-108.5 76-72 81-24.5 71 25 71 72 81 108 76 142 57 165 22q87 0 169-22t142.5-57 107-76 70-81 23.5-71v0zM512 635q-102 0-174-73.5t-72-177.5 72-177.5 174.5-73.5 174.5 73.5 72 177.5-72 177.5-175 73.5v0zM512 544q-65 0-111-46.5t-46-113 46-113 111-46.5 111 46.5 46 113-46 113-111 46.5v0z" />
<glyph unicode="&#xe62f;" glyph-name="viewlist" d="M147 846h200q31 0 53-22t22-53v-224q0-32-22-54t-53-22h-200q-32 0-54 22t-22 54v224q0 31 22 53t54 22zM21 547q0-52 37-89t89-37h200q52 0 89 37t37 89v224q0 52-37 88.5t-89 36.5h-200q-52 0-89-36.5t-37-88.5v-224zM147 297h200q31 0 53-22t22-54v-224q0-31-22-53t-53-22h-200q-32 0-54 22t-22 53v224q0 32 22 54t54 22zM21-3q0-52 37-88.5t89-36.5h200q52 0 89 36.5t37 88.5v224q0 52-37 89t-89 37h-200q-52 0-89-37t-37-89v-224zM999 746q10 0 17.5 7.5t7.5 17.5-7.5 17.5-17.5 7.5h-426q-11 0-18-7.5t-7-17.5 7-17.5 18-7.5h426zM999 621q10 0 17.5 7.5t7.5 18-7.5 17.5-17.5 7h-426q-11 0-18-7t-7-17.5 7-18 18-7.5h426zM999 496q10 0 17.5 7.5t7.5 18-7.5 17.5-17.5 7h-426q-11 0-18-7t-7-17.5 7-18 18-7.5h426zM999 222q10 0 17.5 7t7.5 17.5-7.5 18-17.5 7.5h-426q-11 0-18-7.5t-7-18 7-17.5 18-7h426zM999 97q10 0 17.5 7t7.5 17.5-7.5 18-17.5 7.5h-426q-11 0-18-7.5t-7-18 7-17.5 18-7h426zM999-28q10 0 17.5 7.5t7.5 17.5-7.5 17.5-17.5 7.5h-426q-11 0-18-7.5t-7-17.5 7-17.5 18-7.5h426z" />
<glyph unicode="&#xe630;" glyph-name="xiangziline" d="M962 633l-465 202q-6 3-12 0l-424-191q-8-3-8-13v-474q0-10 8-14l439-209q3-2 6.5-2t6.5 2l449 219q8 4 8 13v454q0 9-8 13zM491 806l433-189-412-177-423 182q-2 0-4 1zM82 592l415-178v-446l-415 198v426zM526-27v441l415 178v-417zM376 365l-168 73q-14 5-20-8.5t8-19.5l169-72q3-1 6-1 9 0 13 9 6 13-8 19z" />
<glyph unicode="&#xe631;" glyph-name="41" d="M117 492q-44 0-75-31t-31-75 31-75.5 75-31.5 75.5 31.5 31.5 75.5-31.5 75-75.5 31zM117.5 315q-29.5 0-50 20.5t-20.5 50 20.5 50.5 50 21 50-21 20.5-50.5-20.5-50-50-20.5zM905 492q-44 0-75-31t-31-75 31-75.5 75-31.5 75.5 31.5 31.5 75.5-31.5 75-75.5 31zM905.5 315q-29.5 0-50 20.5t-20.5 50 20.5 50.5 50 21 50-21 20.5-50.5-20.5-50-50-20.5zM511 492q-44 0-75-31t-31-75 31-75.5 75-31.5 75.5 31.5 31.5 75.5-31.5 75-75.5 31zM511.5 315q-29.5 0-50 20.5t-20.5 50 20.5 50.5 50 21 50-21 20.5-50.5-20.5-50-50-20.5z" />
<glyph unicode="&#xe632;" glyph-name="jiantou" d="M592-123l-537 506 536 508 34-35-500-473 499-471z" />
<glyph unicode="&#xe633;" glyph-name="tuihuo" d="M876.032 587.264l-0.512 0.512c-4.608 7.68-12.8 12.288-21.504 12.288-4.096 0-8.704-1.024-12.288-3.072-11.264-6.144-15.872-20.48-10.752-32.256l-0.512-0.512 1.536-1.536c98.816-177.152 35.328-401.92-141.312-501.76-55.296-31.232-117.76-47.616-180.224-47.616-133.12 0-256.512 72.192-322.048 188.416-48.128 86.016-60.416 185.344-33.792 280.576 26.624 94.72 88.576 173.568 174.592 222.208 54.784 30.72 116.224 47.104 178.688 47.104 81.92 0 163.328-28.16 228.352-78.848l3.072-2.56 1.024 1.024c3.584-2.048 7.68-3.072 11.776-3.072 7.68 0 14.848 3.584 19.968 9.728 8.704 10.752 6.656 26.624-4.608 35.328-0.512 0.512-1.024 0.512-1.536 1.024-73.216 56.32-164.352 87.040-256.512 87.040-71.168 0-141.824-18.432-204.288-53.76-201.216-113.152-273.408-369.152-160.256-570.368 74.24-132.096 214.016-214.016 365.568-214.016 71.168 0 142.336 18.432 204.8 53.76 201.728 113.152 273.92 369.152 160.768 570.368zM697.344 469.504h-312.32l80.384 80.384c5.12 5.12 8.192 11.776 8.192 18.432 0.512 7.168-2.048 13.312-7.168 18.432-4.608 4.608-10.752 7.168-17.408 7.168-7.168 0-14.336-3.072-19.456-8.192l-120.32-121.344c-6.656-4.608-10.24-12.288-10.24-19.968 0-13.824 11.264-25.088 25.088-25.088h373.248c13.824 0 25.088 11.264 25.088 25.088s-11.264 25.088-25.088 25.088zM547.84 195.584c-0.512-7.168 2.048-13.312 7.168-18.432 4.608-4.608 10.752-7.168 16.896-7.168 7.168 0 14.336 3.072 19.456 8.192l122.368 121.856c2.56 2.56 4.096 5.12 5.632 8.192 1.024 2.56 2.048 5.12 2.56 8.192 1.024 7.68-1.536 15.36-6.656 20.48-2.56 2.56-5.632 4.608-8.704 5.632s-6.144 2.048-9.216 2.048h-373.248c-13.824 0-25.088-11.264-25.088-25.088s11.264-25.088 25.088-25.088h312.832l-80.896-80.384c-5.12-4.608-8.192-11.264-8.192-18.432z" />
<glyph unicode="&#xe634;" glyph-name="xindong" horiz-adv-x="1184" d="M899.302 151.040c-123.131-105.682-269.558-211.2-307.302-238.080-37.734 26.88-184.166 132.398-307.302 238.080h-48.896c145.152-128.768 336.589-263.475 347.034-270.802 2.549-1.822 5.73-2.913 9.165-2.913s6.615 1.091 9.213 2.946l-0.048-0.033c10.445 7.327 201.887 142.029 347.085 270.802h-48.947zM1183.974 576c0-94.618-23.357-173.363-76.447-252.57h-39.163c58.266 79.923 83.661 157.85 83.661 252.57 0 158.822-129.224 288-288.051 288-71.219 0-139.837-26.522-193.024-74.752-26.204-23.766-47.853-51.988-63.859-83.554l-0.755-1.643c-5.427-10.906-23.245-10.906-28.672 0-16.077 32.256-37.837 60.928-64.614 85.248-53.197 48.179-121.805 74.701-193.024 74.701-158.822 0-288.051-129.178-288.051-288 0-94.72 25.395-172.646 83.661-252.57h-39.117c-53.146 79.206-76.493 157.952-76.493 252.57 0 176.435 143.514 320 320 320 79.206 0 155.392-29.491 214.477-82.995 22.017-19.965 41.043-42.638 56.715-67.629l0.783-1.338c15.77 25.498 35.021 48.589 57.452 68.915 59.177 53.555 135.316 83.046 214.523 83.046 176.486 0 320-143.565 320-320zM457.836 88.34l-79.217 217.477-46.008-73.318h-290.196v30.72h273.208l70.359 112.138 69.14-189.809 93.809 310.39 100.91-232.719h478.648v-30.72h-498.811l-75.587 174.326z" />
<glyph unicode="&#xe635;" glyph-name="shopping" d="M913-47l-37 575q-1 7-6.5 12t-12.5 5h-154v77q0 80-56.5 136.5t-136.5 56.5-136.5-56.5-56.5-136.5v-77h-153q-8 0-13.5-5t-5.5-12l-40-579q-1-8 4.5-14.5t14.5-6.5h770q8 0 13.5 5.5t5.5 13.5v6zM355 622q0 64 45.5 109.5t109.5 45.5 109-45.5 45-109.5v-77h-309v77zM145-34l36 541h136v-44q-20-11-20-34 0-16 11.5-27t27.5-11 27.5 11 11.5 27q0 23-20 34v44h309v-44q-19-11-19-34 0-16 11-27t27-11 27.5 11 11.5 27q0 23-19 34v44h136l33-541h-727z" />
<glyph unicode="&#xe636;" glyph-name="xiao10" d="M361 90v469q0 9-6.5 15.5t-15.5 6.5-15-6.5-6-15.5v-469q0-9 6-15t15-6 15.5 6 6.5 15zM531 90v469q0 9-6 15.5t-15 6.5-15-6.5-6-15.5v-469q0-9 6-15t15-6 15 6 6 15zM147 602q-16 0-20-16h-1v-581q0-36 25-61t60-25h597q36 0 61 25t25 61v576q0 8-6.5 14.5t-15 6.5-15-6.5-6.5-14.5v-576q0-18-12.5-30.5t-30.5-12.5h-597q-17 0-29.5 12.5t-12.5 30.5v576q0 8-6.5 14.5t-15.5 6.5zM83 708h256q1 0 1 1 10-1 17 6l79 79h148l79-79q7-7 17-6 0-1 1-1h256q8 0 14.5 6.5t6.5 15.5-6.5 15-14.5 6h-246l-79 79q-7 7-16 6h-172q-10 1-16-6l-79-79h-246q-9 0-15-6t-6-15 6-15.5 15-6.5zM702 90v469q0 9-6.5 15.5t-15 6.5-15-6.5-6.5-15.5v-469q0-9 6.5-15t15-6 15 6 6.5 15z" />
<glyph unicode="&#xe637;" glyph-name="uniE637" d="M769-192h-180v192q0 10-7.5 17.5t-17.5 7.5h-91q-11 0-18.5-7.5t-7.5-17.5v-192h-194q-40 0-68.5 28.5t-28.5 68.5v317l-109 34-9 9q-20 19-20 46.5t20 47.5l429 429q20 20 47.5 20t46.5-20l430-429q19-20 19-47.5t-19-46.5l-9-9-116-34v-317q0-40-28.5-68.5t-68.5-28.5zM630-151h139q23 0 39.5 16.5t16.5 39.5v347l135 40 2 2q7 7 7 17.5t-7 18.5l-430 430q-7 7-17.5 7t-18.5-7l-429-430q-8-8-8-18.5t8-17.5l1-2 129-40v-347q0-23 16.5-39.5t39.5-16.5h154v151q0 27 19.5 46.5t46.5 19.5h91q27 0 46.5-19.5t19.5-46.5v-151z" />
<glyph unicode="&#xe638;" glyph-name="youxiang" d="M916 40h-812q-17 0-29 11.5t-12 28.5v617q0 17 12 29t29 12h812q17 0 29-12t12-29v-617q0-17-12-28.5t-29-11.5zM104 709q-5 0-9-3.5t-4-8.5v-617q0-5 4-8.5t9-3.5h812q5 0 9 3.5t4 8.5v617q0 5-4 8.5t-9 3.5h-812zM510 313l-441 346 17 22 424-332 424 332 18-22zM96 51l-21 20 289 289 21-20zM663 361l290-290-20-20-290 290z" />
<glyph unicode="&#xe639;" glyph-name="xinlang" d="M758 395q-17 3-22.5 10.5t-1.5 12.5l4 6q2 3 4 7.5t6.5 18 5 26.5-5 29.5-18.5 29.5q-33 28-77 24t-82.5-16.5-38.5-14.5q-12-4-19.5-5.5t-12 0.5-6.5 4-1.5 8 1 10.5 3 14.5 3.5 16q0 18-2.5 33t-12.5 31.5-26.5 25-47 8-71.5-14.5q-119-41-241-189-26-31-25-31-23-32-39.5-65t-23-55.5-9-43.5-2.5-28 1-10v0q6-56 33.5-100.5t65.5-72 89.5-47 99-28 100.5-13.5q87-6 179.5 14.5t173 71 113.5 120.5q19 41 19.5 77t-12 59-33 40.5-38.5 25.5-33 11zM401 31q-125-6-214 49t-89 139 88 144 215 66q129 6 216.5-42.5t87.5-130.5q0-85-89.5-152t-214.5-73zM368 355q-35-4-61.5-16t-42-28-26-34-14.5-35.5-5.5-32-1-23.5 1.5-8v-6.5t2-13.5 6.5-19 14-19.5 22.5-17.5q47-26 97-26.5t89 18.5 66 53q15 20 20.5 49t-2.5 59-26.5 54.5-55 38-84.5 7.5zM325.5 133.5q-23.5-2.5-40.5 9.5t-17 31q0 21 15.5 38t38.5 19q27 3 43.5-10t16.5-33-16.5-36-40-18.5zM425 218q-8-6-16.5-5t-13.5 8q-4 7-2 16.5t9 15.5q10 7 18.5 6t13-8.5 2-17-10.5-15.5zM841 463q10 0 17.5 7t9.5 16v3q4 38-2 67t-19 45-30 26.5-34.5 13.5-32.5 3.5-24.5-0.5l-9.5-1q-11 0-19-8.5t-8-20 8-19.5 19-8q37 7 58 0.5t29.5-22.5 10.5-32.5 1-29.5l-2-12q0-12 8-20t20-8zM820 786q-59 14-138-1l-3-1-1-1q-13-4-21.5-14.5t-8.5-24.5q0-17 12-28.5t29-11.5q21 3 36 8 6 1 20.5 2.5t38.5-4.5 48-15.5 49.5-30.5 42.5-50q31-70 13-134-8-19-8-39 0-16 11.5-26t28.5-10 26 6.5 12 27.5h1q21 65 16 118t-23 92-49.5 67.5-64 45-67.5 24.5z" />
<glyph unicode="&#xe63a;" glyph-name="tixingnaozhong" d="M880 448q7-37 7-74 0-79-30.5-149t-85.5-123l90-90q6-7 6-16.5t-6.5-16-16-6.5-15.5 7l-93 93q-100-74-224-74t-224 74l-91-91q-7-6-16-6t-15.5 6.5-6.5 15.5 7 15l88 89q-55 52-86 122.5t-31 149.5q0 37 7 74-35 27-55.5 67.5t-20.5 86.5q0 80 57 136.5t137 56.5q84 0 141-62 53 16 109 16t109-16q57 62 141 62 80 0 137-56.5t57-136.5q0-46-20.5-86.5t-55.5-67.5zM262 749q-62 0-105-43t-43-104q0-62 43-105 26 72 77.5 129t121.5 89q-42 34-94 34zM512 704q-90 0-166-44t-120-120-44-166 44-166 120-120 166-44 166 44 120 120 44 166-44 166-120 120-166 44zM762 749q-52 0-94-34 70-32 121.5-89t77.5-129q43 43 43 105 0 61-43 104t-105 43zM683 340h-182q-10 0-16.5 6.5t-6.5 16.5v204q0 10 6.5 16.5t16 6.5 16-6.5 6.5-16.5v-182h160q9 0 15.5-6.5t6.5-16-6.5-16-15.5-6.5z" />
<glyph unicode="&#xe63b;" glyph-name="fenxiang" d="M836.5 828q-56.5 0-96.5-40t-40-97q0-19 5-37l-399-168q-18 32-49.5 50.5t-68.5 18.5q-57 0-97-40t-40-97 40-97 97-40q59 0 100 44l257-185q-16-30-16-63 0-57 40-97t96.5-40 96.5 40 40 96.5-40 96.5-97 40q-60 0-101-45l-256 185q16 30 16 65 0 18-5 37l399 167q19-31 50-49t68-18q57 0 97 40t40 96.5-40 96.5-96.5 40zM665.5 179q42.5 0 72.5-30t30-72.5-30-72.5-72.5-30-72.5 30-30 72.5 30 72.5 72.5 30zM187.5 315q-42.5 0-72.5 30.5t-30 73 30 72.5 72.5 30 72.5-30 30-72.5-30-73-72.5-30.5zM836 589q-42 0-72 30t-30 72.5 30 72.5 72 30 72-30 30-72.5-30-72.5-72-30z" />
<glyph unicode="&#xe63c;" glyph-name="money" d="M511 834q-90 0-173.5-36t-143.5-96-95.5-143.5-35.5-174.5 35.5-174.5 95.5-143.5 143.5-96 174-36 174 36 143.5 96 95.5 143.5 35.5 174.5-35.5 174-95.5 143.5-143 96.5-175 36v0zM511-22q-109 0-202.5 54.5t-147.5 148-54 203.5 54 203.5 147.5 147.5 203 54 202.5-54 147.5-147.5 54.5-203.5-54-203.5-147.5-148-203.5-54.5v0zM702 643l-139-236h110v-53h-128v-72h128v-52h-128v-105h-66v105h-133v52h133v72h-133v53h113l-138 236h75q96-176 117-223h1q8 19 39 78l79 145h70z" />
<glyph unicode="&#xe63d;" glyph-name="kefu" d="M259 198q108-80 255-80 68 0 136 24t115 64q61-33 104.5-98.5t44.5-132.5h-805q7 76 51.5 135t98.5 88zM760 247q-106-97-251-97t-250 97q-91-46-143-125t-52-183h893q0 104-52.5 183t-144.5 125zM219 377v228l-10-1q39 86 120 138t180 52 179.5-52 120.5-138l-9 1v-228q48 0 82 33.5t34 80.5q0 32-16.5 58t-43.5 42q-38 106-133 173.5t-214 67.5-214-67-133-174q-27-15-43-41.5t-16-58.5q0-47 34-80.5t82-33.5v0zM509 267q-87 0-148.5 60t-61.5 146q0 84 63 144.5t147 60.5q87 0 148-60t61-145.5-61-145.5-148-60zM509 718q-104 0-177.5-72t-73.5-174 73.5-174 177.5-72 177.5 72 73.5 174-73.5 174-177.5 72z" />
<glyph unicode="&#xe63e;" glyph-name="geren" d="M257 560q0 103 74 175.5t179 72.5 179.5-72.5 74.5-175.5-74.5-176-179.5-73-179 73-74 176v0 0zM212 560q0-87 48-159t126-107q-131-37-219-140t-102-237h45q17 148 131.5 249t269 101 269-101 131.5-249h45q-14 134-102 237t-219 140q78 35 126 107t48 159q0 121-87.5 206.5t-211 85.5-211-85.5-87.5-206.5v0 0z" />
<glyph unicode="&#xe63f;" glyph-name="icon83" horiz-adv-x="1025" d="M1024 524q0 33-24 56.5t-57 23.5h-63q43 41 43 100 0 58-41.5 99t-100.5 41q-98 0-163-152-27 12-59.5 12t-59.5-12q-65 152-163 152-49 0-87-30t-50-76q19-4 39-10 8 33 35.5 55t62.5 22q74 0 129-137-6-9-7-20 4 1 6 1-2 0-6-3l-1-2q0-18 19-34v-1q-58-17-171 45-58 31-111 42.5t-84.5 8-59-16.5-34.5-19.5-11-11.5q-6-7-5-15t7.5-13.5 15-4.5 13.5 8q3 3 9 8.5t27.5 14.5 48 11 70.5-9 94-38q97-53 163-53 12 0 26 2 0-1 1-2t1-2h62v-160h-405v120q0 17 12 28.5t29 11.5h134q-23 11-42 21-19 11-39 19h-53q-34 0-57.5-23.5t-23.5-56.5v-160h61v-360q0-33 23.5-56.5t57.5-23.5h647q34 0 57.5 23.5t23.5 56.5v360h61v160zM538-36h-303q-17 0-29 11.5t-12 28.5v360h344v-400zM660 644q0 12-9 24 56 137 130 137 42 0 71.5-29.5t29.5-71-30-71-71-29.5h-147q26 18 26 40zM558 624q-11 0-23 2-3 6-8 8-9 5-19-1-10 5-10 11 0 8 17.5 14t42.5 6 43-6 18-14-17.5-14-43.5-6zM923 4q0-17-12-28.5t-29-11.5h-303v400h344v-360zM983 404h-404v160h364q17 0 28.5-11.5t11.5-28.5v-120z" />
<glyph unicode="&#xe640;" glyph-name="gengduo" d="M888.5 269q-42.5 0-73 30t-30.5 73 30.5 73 73 30 73-30 30.5-73-30.5-73-73-30zM888.5 446q-30.5 0-52-21.5t-21.5-52.5 21.5-52.5 52-21.5 52 21.5 21.5 52.5-21.5 52.5-52 21.5zM512 269q-43 0-73 30t-30 73 30 73 73 30 73-30 30-73-30-73-73-30zM512 446q-31 0-52.5-21.5t-21.5-52.5 21.5-52.5 52.5-21.5 52.5 21.5 21.5 52.5-21.5 52.5-52.5 21.5zM135.5 269q-42.5 0-73 30t-30.5 73 30.5 73 73 30 73-30 30.5-73-30.5-73-73-30zM135.5 446q-30.5 0-52-21.5t-21.5-52.5 21.5-52.5 52-21.5 52 21.5 21.5 52.5-21.5 52.5-52 21.5z" />
<glyph unicode="&#xe641;" glyph-name="dingwei" d="M510 849q69 0 131-26 61-26 107.5-72.5t72.5-107.5q26-62 26-131 0-58-28-130-27-66-77-144-65-98-220-279-9-12-13-16-145 166-216 271-57 85-87 157-33 79-33 141 0 69 26 131 26 61 72.5 107.5t107.5 72.5q62 26 131 26zM511 308q85 0 145.5 60.5t60.5 145.5-60.5 145.5-145.5 60.5-145.5-60.5-60.5-145.5 60.5-145.5 145.5-60.5zM510 896q-104 0-192.5-51.5t-140-140-51.5-192.5q0-42 13.5-90.5t32.5-91.5 53.5-96.5 61-91 70.5-91.5 68-81.5 67-76.5l18-21q13 16 58 68.5t65.5 77.5 62 77 63 84.5 52 82 45.5 87 26.5 81 11.5 82.5q0 104-51.5 192.5t-140 140-192.5 51.5v0zM511 348q-69 0-117.5 48.5t-48.5 117.5 48.5 117.5 117.5 48.5 117.5-48.5 48.5-117.5-48.5-117.5-117.5-48.5v0z" />
<glyph unicode="&#xe642;" glyph-name="tuichu" d="M531.421-127.265c-66.163 0-130.418 12.453-190.858 37.139-58.417 23.731-110.806 57.748-155.83 101.096s-80.357 93.859-105.083 150.064c-25.565 58.189-38.538 120.015-38.538 183.751 0 76.263 19.422 151.974 56.128 219.053 35.485 64.801 87.035 121.704 149.115 164.538 17.247 11.902 41.209 8.045 53.533-8.523s8.394-39.601-8.852-51.43c-52.465-36.295-96.001-84.271-125.916-138.97-31.403-57.344-47.314-119.464-47.314-184.669 0-106.386 43.040-206.416 121.185-281.614 78.106-75.234 181.968-116.672 292.43-116.672 110.424 0 214.324 41.438 292.468 116.672 78.144 75.197 121.146 175.228 121.146 281.614 0 65.132-15.873 127.362-47.314 184.669-29.915 54.662-73.489 102.675-125.954 138.897-17.208 11.829-21.215 34.862-8.852 51.43s36.287 20.462 53.495 8.523c62.119-42.834 113.744-99.737 149.191-164.538 36.745-67.079 56.166-142.791 56.166-219.053 0-63.736-12.973-125.562-38.576-183.787-24.687-56.205-60.058-106.716-105.083-150.064s-97.413-77.328-155.83-101.169c-60.478-24.539-124.695-36.956-190.858-36.956v0 0zM542.944 384.973c-21.177 0-38.347 16.457-38.347 36.882v437.225c0 20.351 17.17 36.919 38.347 36.919s38.385-16.568 38.385-36.919v-437.225c0-20.425-17.209-36.882-38.385-36.882v0 0z" />
<glyph unicode="&#xe643;" glyph-name="saoyisao" d="M112 576q7 0 11.5 4.5t4.5 11.5v176h176q7 0 11.5 4.5t4.5 11.5-4.5 11.5-11.5 4.5h-192q-7 0-11.5-4.5t-4.5-11.5v-192q0-7 4.5-11.5t11.5-4.5zM304 0h-176v176q0 7-4.5 11.5t-11.5 4.5-11.5-4.5-4.5-11.5v-192q0-7 4.5-11.5t11.5-4.5h192q7 0 11.5 4.5t4.5 11.5-4.5 11.5-11.5 4.5zM912 800h-195q-7 0-11.5-4.5t-4.5-11.5 4.5-11.5 11.5-4.5h179v-176q0-7 4.5-11.5t11.5-4.5 11.5 4.5 4.5 11.5v192q0 7-4.5 11.5t-11.5 4.5zM912 192q-7 0-11.5-4.5t-4.5-11.5v-176h-179q-7 0-11.5-4.5t-4.5-11.5 4.5-11.5 11.5-4.5h195q7 0 11.5 4.5t4.5 11.5v192q0 7-4.5 11.5t-11.5 4.5zM912 400h-800q-7 0-11.5-4.5t-4.5-11.5 4.5-11.5 11.5-4.5h800q7 0 11.5 4.5t4.5 11.5-4.5 11.5-11.5 4.5z" />
<glyph unicode="&#xe644;" glyph-name="guanbi1" d="M512 896q-139 0-257-68.5t-186.5-186.5-68.5-257 68.5-257 186.5-186.5 257-68.5 257 68.5 186.5 186.5 68.5 257-68.5 257-186.5 186.5-257 68.5zM731 205l-40-40-179 179-179-179-40 40 179 179-179 179 40 40 179-179 179 179 40-40-179-179z" />
<glyph unicode="&#xe645;" glyph-name="904anquansaoma" d="M392 830h-326v-326h326v326zM361 535h-264v264h264v-264zM66-60h326v326h-326v-326zM97 235h264v-264h-264v264zM631 830v-326h326v326h-326zM927 535h-265v264h265v-264zM81 414h861v-31h-861v31zM490 251h31v-297h-31v297zM680 251h30v-297h-30v297zM869 251h30v-297h-30v297zM490 815h31v-294h-31v294z" />
<glyph unicode="&#xe646;" glyph-name="daipingjia2" d="M311 421.5q0 15.5 11 27t27 11.5 27-11.5 11-27-11-26.5-27-11-27 11-11 26.5zM474 421.5q0 15.5 11 27t27 11.5 27-11.5 11-27-11-26.5-27-11-27 11-11 26.5zM640 421.5q0 15.5 11 27t26.5 11.5 27-11.5 11.5-27-11.5-26.5-27-11-26.5 11-11 26.5zM511 39l-81 84h-249q-32 0-55 22.5t-23 55.5v450q0 32 23 55t55 23h673q33 0 55.5-23t22.5-55v-450q0-33-22.5-55.5t-55.5-22.5h-257zM181 698q-20 0-33.5-14t-13.5-33v-450q0-20 13.5-34t33.5-14h262l69-70 73 70h269q20 0 34 14t14 34v450q0 19-14 33t-34 14h-673z" />
<glyph unicode="&#xe647;" glyph-name="cuxiao" d="M154.5 750.5q-23.5-23.5-23.5-57t23.5-57.5 56.5-24 56 24 23 57.5-23 57-56 23.5-56.5-23.5zM235 668.5q-10-10.5-24-10.5t-24 10.5-10 25 10 24.5 24 10 24-10 10-24.5-10-25zM988 438l-1 1-461 426q-10 10-23 15t-69.5 10.5-155.5 5.5q-100 0-214-4h-1l-42-2-2-42q-5-151-7-232-1-102 1-161 1-33 2.5-49t8.5-35 20-27l457-436q35-36 85.5-36t86.5 36v1l289 328q23 24 38 60.5t13.5 76-25.5 64.5zM929 268l-289-327q-22-23-53.5-23t-53.5 23l-463 442q-11 2-12.5 119.5t2.5 226.5 5 117q5 0 14 0.5t36.5 1 54.5 1 64 1 69.5 0.5 66.5-1.5 59-3 43-5 22-8.5l462-426q19-26 8.5-69t-35.5-69z" />
<glyph unicode="&#xe648;" glyph-name="back" d="M364 423q-20-18-20-44t21-44l309-271q7-6 15.5-5.5t14.5 7.5 5.5 15.5-7.5 14.5l-309 271q-14 12-1 24l310 281q7 6 7.5 15t-5.5 15.5-15 7-15-5.5z" />
<glyph unicode="&#xe649;" glyph-name="less" d="M510 509q12 14 25 0l270-310q6-6 15-7t15.5 5 7 15-5.5 15l-270 310q-18 20-44 20.5t-45-20.5l-280-309q-6-7-6-16t7-14.5 15.5-5.5 14.5 7z" />
<glyph unicode="&#xe64a;" glyph-name="moreunfold" d="M478 252q19-20 45-20t44 21l270 309q6 7 5.5 15.5t-7 14.5-15.5 5.5-15-7.5l-270-309q-13-14-25-1l-281 310q-6 7-14.5 7.5t-15.5-5.5-7-15 6-15z" />
<glyph unicode="&#xe64b;" glyph-name="more" d="M642 391q14-12 0-24l-309-271q-7-6-7.5-14.5t5-15.5 14.5-7.5 16 5.5l309 271q21 18 21 44t-20 44l-310 281q-7 6-15.5 5.5t-14.5-7-5.5-15.5 6.5-15z" />
<glyph unicode="&#xe64c;" glyph-name="a" d="M548 743q88 0 162.5-43t117.5-117.5 43-162.5q0-7 5.5-12.5t13-5.5 12.5 5.5 5 12.5q0 98-48 180.5t-130.5 130.5-180.5 48q-7 0-12.5-5t-5.5-12.5 5.5-13 12.5-5.5zM548 564q60 0 102-42.5t42-101.5q0-8 5-13t12.5-5 13 5 5.5 13q0 74-53 127t-127 53q-7 0-12.5-5.5t-5.5-13 5.5-12.5 12.5-5zM548 384q15 0 25.5 10.5t10.5 25.5-10.5 25.5-25.5 10.5-25.5-10.5-10.5-25.5 10.5-25.5 25.5-10.5zM907 151q0 22-16 38-4 4-9 7l-153 119q-16 15-38 15-17 0-32-11l-42-42h-1q-10-12-26-12-19 0-30 15v-1q-90 65-154 152 0 1 0.5 1h1.5q-16 11-16 30 0 17 13 27v0l42 42q11 15 11 33 0 22-16 38l-118 152q-4 6-8 10-15 15-38 15-57 0-109-56.5t-52-131.5q0-42 18-81l-1-1q81-161 211.5-291.5t291.5-211.5l1 1q38-18 81-18 74 0 131 52t57 109v1zM719 25q-34 0-66 14-3 2-6 3-153 78-276 201t-202 276q0 4-2 6-14 32-14 66 0 61 42 106.5t83 45.5q8 0 13-5 1-1 2-3 1-1 2-3l119-152q1-1 3-4 5-5 5-12 0-5-3-9l-40-40v-1q-23-21-23-52 0-29 20-49 1-2 1-3 67-92 161-160 1 0 1.5-0.5l0.5-0.5q21-20 50-20t50 20l2 2 40 41q4 2 9 2 8 0 13-5l3-3 152-118q2-1 3.5-2t3.5-3q5-5 5-12v-4q-2-41-47.5-81.5t-104.5-40.5v0z" />
<glyph unicode="&#xe64d;" glyph-name="222222226" d="M281 203q-50 0-85-35t-35-84.5 35-84.5 84.5-35 85 35 35.5 84.5-35.5 84.5-84.5 35v0zM281 4q-33 0-56.5 23t-23.5 56.5 23.5 56.5 56.5 23 56.5-23 23.5-56.5-23.5-56.5-56.5-23v0zM800-36q-49 0-84.5 35t-35.5 84.5 35.5 84.5 85 35 84.5-35 35-84.5-35-84.5-85-35v0zM800 163q-33 0-56.5-23t-23.5-56.5 23.5-56.5 56.5-23 56.5 23 23.5 56.5-23.5 56.5-56.5 23v0zM600 544v0zM1020 315v-232q0-8-6-13.5t-14-5.5h-40q-8 0-14 5.5t-6 14 6 14 14 5.5h20v207l-133 213h-207v-440q0-8-5.5-13.5t-14.5-5.5v0h-159q-8 0-14 5.5t-6 14 6 14 14 5.5h139v560h-539v-560h51q8 0 14-5.5t6-14-6-14-14-5.5h-71q-8 0-14 5.5t-6 13.5v600q0 8 6 14t14 6h579q9 0 14.5-6t5.5-14v-120h218q11 0 17-10l142-227q3-5 3-11v0zM820 330h-89v106h88z" />
<glyph unicode="&#xe64e;" glyph-name="wodepingjia" d="M653.508 421.579c-19.735 0-35.73-15.99-35.73-35.73 0-19.737 15.995-35.727 35.73-35.727 19.74 0 35.73 15.99 35.73 35.727 0 19.74-15.99 35.73-35.73 35.73zM514.589 421.579c-19.735 0-35.73-15.99-35.73-35.73 0-19.737 15.995-35.727 35.73-35.727 19.74 0 35.735 15.99 35.735 35.727 0 19.74-15.995 35.73-35.735 35.73zM375.677 421.579c-19.74 0-35.73-15.99-35.73-35.73 0-19.737 15.99-35.727 35.73-35.727 19.742 0 35.732 15.99 35.732 35.727 0 19.74-15.995 35.73-35.732 35.73zM514.594 891.090c-281.337 0-509.404-228.069-509.404-509.409 0-281.329 228.069-509.399 509.404-509.399s509.404 228.064 509.404 509.399c-0.001 281.342-228.070 509.409-509.404 509.409zM287.469 139.717l20.91 72.795c-52.195 45.98-80.855 106.36-80.855 170.71 0 137.195 131.455 253.094 287.064 253.094s287.074-115.9 287.074-253.094c0-135.28-128.78-245.334-287.074-245.334-35.405 0-69.925 5.435-102.66 16.145l-109.77-26.46c-1.93-0.37-3.49-0.52-5.19-0.52-2.175 0-4.33 0.72-6.115 2.12-3.164 2.494-4.514 6.674-3.384 10.544v0z" />
<glyph unicode="&#xe64f;" glyph-name="7tianwuliyoutuihuo" d="M1016 714l-193 45-9-194 96 71q73-115 73-252 0-96-37.5-183t-100.5-150-150-100.5-183-37.5-183 37.5-150 100.5-100.5 150-37.5 183 37.5 183 100.5 150 150 100.5 183 37.5q63 0 124-16 8-3 15.5 1.5t9.5 12.5-2 15.5-13 9.5q-65 18-134 18-103 0-196.5-38.5t-166-111-111-166-38.5-196.5 38.5-196.5 111-166 166-111 196.5-38.5 196.5 38.5 166 111 111 166 38.5 196.5q0 150-81 276zM508 162l145 365v38h-278v-69h189l-144-334h88z" />
<glyph unicode="&#xe650;" glyph-name="shimingrenzheng" horiz-adv-x="1392" d="M730.929 468.47h309.925v-53.628h-309.925v53.628zM825.256 74.304l-2.707 2.682h-609.035c-24.249 0-43.122 18.774-43.122 42.9v563.095c0 24.126 18.86 45.582 43.122 45.582h867.755c24.262 0 43.122-18.774 43.122-42.912v-337.845l2.694-2.682c13.472-8.046 26.944-18.774 37.733-32.172l10.777-13.41v396.849c0 45.582-37.733 83.117-83.537 83.117h-892.029c-45.804 0-83.537-37.536-83.537-83.117v-589.903c0-45.582 37.733-83.117 83.537-83.117h660.253l-8.083 10.728c-10.777 13.398-18.86 26.808-26.944 40.205v0zM730.929 350.487h91.62v-53.628h-91.62v53.628zM730.929 583.772h309.925v-53.628h-309.925v53.628zM1013.898 342.441c-99.703 0-177.864-77.753-177.864-176.975 0-96.527 80.855-176.975 177.864-176.975 99.716 0.012 177.864 77.778 177.864 176.987s-80.855 176.962-177.864 176.962v0zM1011.203 58.224c-8.083-8.046-24.249-8.046-35.027 0l-75.454 75.071c-8.083 8.046-8.083 24.126 0 32.172s24.249 8.046 35.027 0l59.288-58.992 115.882 112.619c8.083 8.046 24.249 8.046 35.027 0 8.083-8.046 8.083-24.138 0-32.184l-134.742-128.686zM551.655 406.513c29.218 26.165 47.621 64.182 47.621 106.489 0.012 78.927-63.972 142.912-142.9 142.912s-142.912-63.985-142.912-142.912c0-42.319 18.391-80.336 47.621-106.489-78.692-36.139-133.358-115.622-133.358-207.898h57.162c0 94.71 76.777 171.487 171.487 171.487s171.487-76.777 171.487-171.487h57.162c0 92.275-54.666 171.759-133.371 207.898zM456.376 598.751c47.361 0 85.75-38.388 85.75-85.75s-38.388-85.737-85.75-85.737-85.75 38.388-85.75 85.75 38.388 85.737 85.75 85.737z" />
<glyph unicode="&#xe651;" glyph-name="medal" d="M512 649q-70 0-120-49t-50-119.5 50-120.5 120-50 120 50 50 120.5-50 119.5-120 49zM512 353q-52 0-89.5 37.5t-37.5 90 37 89.5 90 37 90-37 37-89.5-37.5-90-89.5-37.5zM850 481q0 91-45 169t-123 123.5-170 45.5-170-45.5-123-123.5-45-169q0-94 46.5-172t125.5-122v-262h42l129 79 124-79h43v265q76 45 121 122t45 169zM641-19l-129 71-124-74v188q59-23 124-23 68 0 129 26v-188zM512 185q-65 0-124 28l-4 1q-76 37-122 108.5t-46 158.5q0 122 87 209t209 87 209-87 87-209.5-86.5-209-209.5-86.5z" />
<glyph unicode="&#xe652;" glyph-name="genggaizhuti" d="M693 31h-366q-17 0-29.5 12.5t-12.5 29.5v353l-43-45q-12-12-30-12t-30 11l-108 104q-12 12-12.5 29.5t11.5 30.5l169 175q23 23 35 23h107q30 0 37-7l5-5v-8q0-33 23.5-53.5t60.5-20.5 60.5 20.5 23.5 53.5v7l5 6q7 7 37 7h107q12 0 35-23l169-175q12-12 11.5-30t-12.5-30l-108-104q-12-12-29-12v0q-18 0-31 13l-43 45v-353q0-17-12.5-29.5t-29.5-12.5zM296 477q10 0 17.5-8t7.5-23v-373q0-6 6-6h366q6 0 6 6v373q0 15 7.5 23t17.5 8q12 0 23-11l57-60q5-4 9 0l108 104q2 2 2 4.5t-2 4.5l-169 175q-7 8-14 12h-109q-6-42-39-68.5t-80-26.5-80 26.5-39 68.5h-109q-6-4-14-12l-169-175q-2-2-1.5-4.5t1.5-4.5l108-104q4-4 9 0l57 60q11 11 23 11z" />
<glyph unicode="&#xe653;" glyph-name="lightning" d="M953 540h-328l287 351h-349l-410-517h308l-390-497z" />
<glyph unicode="&#xe654;" glyph-name="079aiqing" d="M844.485 506.931c-18.055 0-35.489-3.133-52.056-9.12 22.956 124.616-31.146 229.595-114.163 280.566-78.859 48.425-194.201 48.829-277.774-52.986-55.902 67.66-132.031 97.379-210.394 80.286-95.611-20.908-169.506-106.158-183.9-212.193-11.479-84.753 2.419-304.112 379.714-509.697 4.591-2.513 9.617-3.754 14.642-3.754s10.051 1.24 14.643 3.754c27.858 15.139 54.537 30.898 79.603 46.936 48.085-61.518 119.559-118.382 213.186-169.413 4.53-2.482 9.617-3.723 14.642-3.723s10.053 1.241 14.643 3.723c110.998 60.493 190.912 129.209 237.57 204.127 51.806 83.202 50.008 153.157 39.397 197.209-20.163 83.605-91.516 144.284-169.754 144.284M722.629 26.365c-251.405 142.424-240.485 281.062-230.931 320.771 13.278 55.25 59.192 95.393 109.013 95.393 36.855 0 70.731-22.398 95.363-63.069 5.707-9.431 15.76-15.2 26.555-15.2s20.848 5.77 26.556 15.2c24.57 40.671 58.445 63.069 95.301 63.069 49.884 0 95.735-40.144 109.013-95.393 9.616-39.709 20.474-178.379-230.87-320.771" />
<glyph unicode="&#xe655;" glyph-name="xiao36" d="M250 36q4-2 9-2 6 0 11 3l53 35q1 0 2 2l61 40q45-9 89-9 112 0 207.5 48.5t151 131.5 55.5 180.5-55.5 180.5-151 131.5-208 48.5-207.5-48.5-150.5-131.5-55.5-180q0-90 47.5-168t131.5-129v-116q0-12 10-17zM99 466q0 87 50.5 161t137 117.5 188.5 43.5 188.5-43.5 137-117.5 50.5-161.5-50.5-161.5-137-117-188.5-43q-44 0-89 9-8 2-15-3l-70-46-2-2-21-13v91q0 11-9 17-80 45-125 116t-45 153zM938 396l-31-23q41-56 41-122 0-58-32-109t-89-83q-10-6-10-17v-57l-7 4-2 2-51 34q-7 4-14 2-69-13-131 0.5t-111 50.5l-23-31q54-41 123-56.5t141-2.5l43-28 2-2 38-25q5-3 11-3 5 0 9 2 10 5 10 17v82q62 38 97 96t35 124q-1 79-49 145z" />
<glyph unicode="&#xe656;" glyph-name="13caidan" d="M1 372.5q0 42.5 30 72t72.5 29.5 72-29.5 29.5-72-29.5-72.5-72-30-72.5 30-30 72.5zM410 372.5q0 42.5 30 72t72 29.5 72-29.5 30-72-30-72.5-72-30-72 30-30 72.5zM819 372.5q0 42.5 29.5 72t72 29.5 72.5-29.5 30-72-30-72.5-72.5-30-72 30-29.5 72.5z" />
<glyph unicode="&#xe657;" glyph-name="jia" d="M1024 421h-475v475h-74v-475h-475v-74h475v-475h74v475h475v74z" />
<glyph unicode="&#xe658;" glyph-name="xiao56" d="M513 220q66 0 112.5 48t46.5 116-46.5 116-112.5 48-112.5-48-46.5-116 46.5-116 112.5-48zM513 510q50 0 85.5-37t35.5-89-35.5-89-85.5-37-85.5 37-35.5 89 35.5 89 85.5 37zM57 382q57-147 182.5-234.5t278-87.5 278 87.5 182.5 234.5l3 7-3 7q-57 147-182.5 234.5t-278 87.5-278-87.5-182.5-234.5l-3-7zM517.5 680q138.5 0 253-79t168.5-212q-54-133-168.5-212t-253-79-253.5 79-169 212q54 133 169 212t253.5 79z" />
<glyph unicode="&#xe659;" glyph-name="licaicunqianguan" d="M750 317q-4 52-24 85 15 27 10 65l-7 47q-1 6-5 8t-7 1l-4-1-35-5q-37-3-58-17-17 8-39 16-6 1-9.5-0.5t-4.5-4.5l-1-2q-2-9-4-12-9 2-21 3t-19 1h-10q-26-1-48-4l-4 12q0 1-0.5 2.5t-4 3.5-9.5 1q-22-8-39-16-21 14-58 17-28 3-35 5-14 5-16-8-6-35-7-47-5-38 10-65-20-33-24-85-1-3-1.5-9.5t0-26 4.5-38 14.5-44 27.5-46.5l1-84q-1-11 11-11h40q9-1 12 7l10 23q5-3 14.5-8t40-13.5 62.5-9.5h2q31 1 60.5 9t42.5 14.5 13 7.5l10-23q1-4 4-5.5t6-1.5h42q6 0 8.5 2.5t2.5 5.5v3l1 84q54 69 46 157zM690 164q-4-5-4-12l-1-75h-28l-12 27q-1 1-2 3t-5 4-9-2q-6-4-15.5-9.5t-39.5-14.5-60-9h-1q-30 0-59 8.5t-42.5 16-13.5 8.5q-6 4-9.5 2t-5-4-1.5-3l-12-27h-28l-1 75q0 7-4 12-19 25-29.5 54.5t-11.5 46.5l-1 16q-1 30 4.5 58t11.5 41l7 13q5 10 0 17-5 9-7.5 19.5t-1.5 16.5v6q0 8 1.5 19t3 20.5 1.5 10.5l28-4q36-2 57-16 6-4 12-1l33 14 4-12q3-7 12-5l52 4h1l52-4q9-2 12 5l4 12q25-8 33-14 6-3 12 1 20 14 57 16 24 3 28 4 0-1 1.5-10.5t3-20.5 1.5-19q2-22-9-42-5-7 0-17 3-5 7-14t10.5-38.5 5.5-59.5q1 0-0.5-16.5t-12-46-29.5-54.5zM364 354q-1 0-2.5 0.5t-4 3-2.5 6.5q0 2 0.5 5t3.5 11.5 7.5 15 15 12 24.5 6.5q22 1 37-15.5t14-35.5q0-1-0.5-2.5t-3-4-6.5-2-6.5 2.5-2.5 5v2q1 15-12 25-11 7-22.5 6t-18.5-8q-11-9-11-24 1-9-10-9zM663 354q1 0 2.5 0.5t4 3 2.5 6.5q-1 2-1 5t-3 11.5-7.5 15-15 12-24.5 6.5q-22 1-37-15.5t-14-35.5q0-1 0.5-2.5t3-4 6.5-2 6.5 2.5 2.5 5v2q-1 15 12 25 11 7 22.5 6t18.5-8q10-9 11-24-1-9 10-9zM513.5 355q-38.5 0-66.5-27.5t-28-66.5 28-66.5 66.5-27.5 66 27.5 27.5 66.5-27.5 66.5-66 27.5zM513.5 186q-31.5 0-53 22t-21.5 53 21.5 53 53 22 53-22 21.5-53-21.5-53-53-22zM464 262q0 5 3.5 9t9 4 9-4 3.5-9-3.5-8.5-9-3.5-9 3.5-3.5 8.5zM538 262q0 5 3.5 9t9 4 9-4 3.5-9-3.5-8.5-9-3.5-9 3.5-3.5 8.5zM513.5 778q-49.5 0-84-34.5t-34.5-84 34.5-84 84-34.5 84 34.5 34.5 84-34.5 84-84 34.5zM513.5 560q-41.5 0-70.5 29t-29 70.5 29 70.5 70.5 29 70.5-29 29-70.5-29-70.5-70.5-29zM515 661l44 49q1 0 2 1t4.5 1.5 6.5-2.5 3.5-6.5-1.5-5.5l-1-2-34-36h19q9 0 10-9 0-4-2-6.5t-4-3.5h-37l-1-44q1-8-8-9h-2q-4 0-6 2.5t-2 4.5v46h-36q-1 0-2.5 0.5t-3.5 3-1.5 6.5 3 6 4.5 2l2 1h19l-33 36q-7 8 0 14 4 3 6.5 2.5t4.5-1.5l2-1z" />
<glyph unicode="&#xe65a;" glyph-name="gouwuche2" d="M392.5 113q-35.5 0-61-25.5t-25.5-61 25.5-61 61-25.5 61 25.5 25.5 61-25.5 61-61 25.5zM392.5-23q-20.5 0-35 14.5t-14.5 35 14.5 35 35 14.5 35-14.5 14.5-35-14.5-35-35-14.5zM759 113q-36 0-61.5-25.5t-25.5-61 25.5-61 61.5-25.5 61 25.5 25 61-25 61-61 25.5zM758.5-23q-20.5 0-35 14.5t-14.5 35 14.5 35 35 14.5 35-14.5 14.5-35-14.5-35-35-14.5zM901 653h-662q-1 0-5.5 14.5t-12.5 43.5-13 47q-6 18-17 29.5t-19 13.5l-8 3h-67q-3 0-7.5 0.5t-8.5-4.5-5-16q0-10 4.5-15.5t8.5-6.5l5-1h43q12 0 20.5-6.5t15.5-25 12.5-42.5 14-68 17.5-91 24.5-123.5 32.5-154.5q15-65 67-71 13-1 13 0h456q18 0 32 6t21 14 11 17 5 13.5 1 6.5q66 301 77 362 0 48-46 54zM911 563q-3-26-20-101.5t-32.5-139-15.5-62.5q0-1-1-3.5t-4.5-9.5-8.5-12-14-9-19-4h-429q-1 1-4.5 0t-10.5 1-13.5 5.5-14 13-11.5 22.5l-70 346h642.5t9-1.5 10-6 7-14-0.5-25.5z" />
<glyph unicode="&#xe65b;" glyph-name="wodetixian" d="M593 540l-117-176 102-19v-36l-125 24v-56l125-23v-36l-125 23v-116l-47 8v117l-125 23v35l125-23v56l-125 23v36l102-19-118 220 51-10 114-215 113 174zM856 798h-692q-35 0-62-22.5t-34-56.5v0 0q-1-2-1-4v-4q-1-2-1-5v0-520q0-40 28.5-75.5t68.5-44.5l557-128q40-9 68 13.5t28 63.5v73h40q41 0 70 28.5t29 69.5v514q0 40-29 69t-70 29zM767 15q0-30-26-30-5 0-10 2l-557 127q-24 5-41.5 27t-17.5 45v515l2 10q5 21 28 21 4 0 8-1l557-107q23-5 40-25.5t17-43.5v-540zM905 186q0-20-14.5-34.5t-34.5-14.5h-40v418q0 41-28 75t-68 42l-398 77h534q20 0 34.5-14.5t14.5-34.5v-514z" />
<glyph unicode="&#xe65c;" glyph-name="shijian" d="M511-63q-91 0-174 35-80 34-142 96t-96 142q-35 83-35 174t35 174q34 80 96 142t142 96q83 35 174 35t174-35q80-34 142-96t96-142q35-83 35-174t-35-174q-34-80-96-142t-142-96q-83-35-174-35zM511 800q-113 0-209-56t-151.5-151.5-55.5-208.5 55.5-209 151.5-151.5 209-55.5 208.5 55.5 151.5 151.5 56 209-56 208.5-151.5 151.5-208.5 56zM469 293q0-7-5.5-12.5t-12.5-5.5v0q-8 0-13 5.5t-5 12.5v380q0 8 5 13.5t13 5.5v0q7 0 12.5-5.5t5.5-13.5v-380zM448 275q-6 0-10.5 5.5t-4.5 12.5v0q0 8 4.5 13.5t10.5 5.5h319q6 0 10.5-5.5t4.5-13.5v0q0-7-4.5-12.5t-10.5-5.5h-319z" />
<glyph unicode="&#xe65d;" glyph-name="jifen" d="M672 531h-96l38 39q20 19 0.5 38t-38.5 0l-64-70-70 70q-20 19-39 0t0-38l45-39h-90q-27 0-45.5-19.5t-18.5-44.5q0-24 14-41.5t38-22.5v-211q0-10 8-18t17-8h301q10 0 18 8t8 18v205q20 5 35.5 23t15.5 41q-5 29-27 49.5t-50 20.5v0zM358 448q-19 0-19 13 0 6 5.5 12.5t13.5 6.5h135v-32h-135zM640 211h-250v186h103v-109q0-10 8-18t17.5-8 17.5 8 8 18v109h96v-186zM672 448h-128v32h134q6 0 13-5.5t7-13.5q-13-13-26-13v0zM512 896q-138 0-256-69t-187-187-69-256 69-256 187-187 256-69 256 69 187 187 69 256-69 256-187 187-256 69v0zM506-90q-97 0-185 37.5t-151 101-100.5 151-37.5 184.5 37.5 184.5 100.5 151 151 101 184.5 37.5 184.5-37.5 151-101 100.5-151 37.5-184.5-37.5-184.5-100.5-151-151-101-184-37.5v0z" />
<glyph unicode="&#xe65e;" glyph-name="shangchengxitongtubiaozitihuayuanwenjian41" d="M706 727q5 0 8.5 3t3.5 8-3.5 8.5-8.5 3.5h-388q-5 0-8.5-3.5t-3.5-8.5 3.5-8 8.5-3h388zM706 704h-434q-91 0-126-49-31-43-10-103 13-42 53-89.5t76-76.5q3-2 7-2 6 0 9 4 7 9-2 16-34 27-71.5 72t-50.5 83q-16 50 8 82 28 40 107 40h34v-217q0-43 17-84t38.5-68.5 51-52.5 46-35.5 31.5-18.5q-1-2-1-4v-57q0-5 3.5-8t8-3 8 3 3.5 8v57q0 2-1 4 17 8 35.5 18.5t51.5 35.5 57.5 52 43.5 68.5 19 84.5v217h34q79 0 107-40 24-33 8-82-11-31-52-81.5t-70-73.5q-9-7-2-16 3-4 9-4 4 0 7 2 32 25 75 78.5t54 87.5q20 60-10 103-35 49-126 49h-46zM695 464q0-39-18-77t-41-63-54-48.5-48.5-33-32.5-17.5q-14 8-29.5 18t-42.5 33-47.5 48.5-36.5 63-16 76.5v217h366v-217zM375 110q-20 0-33-13t-13-33v-34q0-5 3.5-8.5t8.5-3.5h319q5 0 8.5 3.5t3.5 8.5v33q0 19-13.5 33t-32.5 14h-251zM649 63v-22h-297v23q0 10 6.5 16.5t16.5 6.5h251q10 0 16.5-7t6.5-17z" />
<glyph unicode="&#xe65f;" glyph-name="tuandui" d="M509 368q80 0 137 57t57 137.5-57 137-137 56.5-137-56.5-57-137 57-137.5 137-57v0zM509 728q69 0 117.5-48.5t48.5-117-48.5-117.5-117.5-49-117.5 49-48.5 117.5 48.5 117 117.5 48.5v0zM801 434q-40 0-71 26-11 9-20-2t2-20q39-32 89-32 59 0 100.5 41.5t41.5 100-41.5 100.5-100.5 42q-50 0-89-32-11-9-2-20t20-2q31 26 71 26 48 0 81-33.5t33-80.5-33-80.5-81-33.5v0zM710 267q-15 24-36.5 40t-41 22.5-39.5 9-29.5 2.5-13.5-1h-97.5t-24.5-3.5-34-10-35.5-21-33.5-35.5q-18-26-43-108t-40-148q-1-5 2-10t8.5-6.5 10.5 1.5 6 9q15 64 39 144t40 102q13 20 32.5 33t38.5 17.5 28 6 16 1.5h89q3 1 10.5 1t25-2 34-7.5 35-19 29.5-32.5q0-1 1-2 17-21 43-100.5t40-141.5q2-11 13-11 2 0 4 1 5 1 8 6t2 10q-14 60-40 142.5t-47 110.5v0zM216 406q51 0 90 32 11 9 2 20t-20 2q-31-26-72-26-47 0-80.5 33.5t-33.5 80.5 33.5 80.5 80.5 33.5q41 0 72-26 11-9 20 2t-2 20q-39 32-90 32-59 0-100.5-42t-41.5-100.5 41.5-100 100.5-41.5v0zM980 210q-22 101-45 133-16 24-42.5 36.5t-38.5 13.5-20 1h-60q-3 0-9.5 0.5t-21-1-28-6-29-15-26.5-25.5q-8-11 3.5-19.5t19.5 3.5q13 18 35.5 27t36 8 17.5 0h62q2 1 14-0.5t32-11 32-27.5q20-27 41-123 2-11 13-11h3q6 2 9 6.5t2 10.5v0zM338 326q7-12 19-5t5 19q-10 17-26 29t-30 17-29 7-22 2-10-1h-69t-18-2.5-25-7.5-26-15.5-25-25.5q-22-32-44-133-2-6 1.5-10.5t8.5-6.5h3q11 0 14 11 21 95 40 123 27 39 79 39h63q7 1 18.5 0.5t36-10.5 36.5-30v0z" />
<glyph unicode="&#xe660;" glyph-name="baocang" d="M664 55h-401q-61 0-103.5 43t-42.5 104v200q0 5 3 8t8 3h671q5 0 8-3t3-8v-200q0-61-43-104t-103-43zM139 391v-189q0-52 36.5-88t87.5-36h401q51 0 87.5 36t36.5 88v189h-649zM204 467q-8 0-11 7l-77 210q-2 5 1 10t9 5h243q42 31 94 31 50 0 94-31h244q6 0 9-5t1-10l-82-210q-4-11-14.5-6.5t-6.5 14.5l76 194h-229q-5 0-8 3-40 28-84 28-46 0-84-28 0-1-2-1v0q-2-2-5-2h-230l72-194q4-11-6-15h-4zM520 542q-20 0-35 18t-18 44v0q-3-26-18-44t-35-18q20 0 35-17.5t18-44.5v0q3 27 18 44.5t35 17.5zM396 495q-13 0-23 11.5t-12 29.5v0q-2-18-12-29.5t-22-11.5q12 0 22-11.5t12-28.5v0q2 17 12 28.5t23 11.5zM600 495q-13 0-22.5 11.5t-11.5 29.5v0q-2-18-12-29.5t-23-11.5q13 0 23-11.5t12-28.5v0q2 17 11.5 28.5t22.5 11.5z" />
<glyph unicode="&#xe661;" glyph-name="daifukuan" d="M140.9 616.7v-471.4c0-45.6 36.9-82.5 82.3-82.5h578.2c45.4 0 82.3 37 82.3 82.5v471.4c0 45.5-36.9 82.5-82.3 82.5h-578.2c-45.3 0-82.3-37-82.3-82.5zM99.7 616.7c0 68.3 55.4 123.8 123.6 123.8h578.2c68.2 0 123.6-55.5 123.6-123.8v-471.4c0-68.4-55.4-123.8-123.6-123.8h-578.3c-68.2 0-123.6 55.5-123.6 123.8 0.1-0.1 0.1 471.4 0.1 471.4zM324.1 709.8c-5.5-9.9-18.1-13.5-28.1-8-9.9 5.5-13.5 18.1-8 28.1M423.1 704.6c-8.5-7.7-21.5-7.1-29.2 1.4-7.7 8.4-7.1 21.5 1.4 29.1M774.5 705.3c-8-8-21.1-8-29.2 0-8 8-8 21.1 0 29.2M739.3 339.7c22.8 0 41.3 18.5 41.3 41.3s-18.5 41.3-41.3 41.3-41.3-18.6-41.3-41.3 18.5-41.3 41.3-41.3zM636.1 381c0-45.5 37-82.5 82.6-82.5h206.3l-41.3-41.3v247.6l41.3-41.3h-206.3c-45.7 0-82.6-36.9-82.6-82.5zM594.9 381c0 68.4 55.3 123.8 123.9 123.8h206.2v-247.6h-206.3c-68.4 0-123.8 55.6-123.8 123.8z" />
<glyph unicode="&#xe662;" glyph-name="iconfontquanbudingdan" d="M460 289h234q10 0 18 7t8 17.5-8 17.5-18 7h-234q-11 0-18.5-7t-7.5-17.5 7.5-17.5 18.5-7zM382 72h288v1q16 2 16 19 0 7-4.5 12.5t-11.5 6.5v0h-300q-20 0-36 22t-16 44v418q0 9-6 14.5t-14 5.5-14-5.5-6-14.5v-418q0-41 31.5-73t72.5-32zM694 806h-124t-66 0.5-60.5 0.5h-61.5q-38 0-68-25.5t-34-62.5q0-1-0.5-2t-0.5-2v0 0 0q0-8 6-14t14-6 14 6 6 14v0q5 20 19.5 36t31.5 16h284v-118q0-41 25-66.5t67-25.5h90v-380q0-31-19-48.5t-43-17.5v0q-8 0-13.5-6t-5.5-13.5 5.5-13 13.5-6.5v0 0h4q39 3 68 34.5t29 70.5v419zM746 596q-20 0-36 28t-16 51v79l130-158h-78zM460 413h234q10 0 18 7t8 17-8 17.5-18 7.5h-234q-11 0-18.5-7.5t-7.5-17.5 7.5-17 18.5-7zM717 55q-14 0-17-15h-1q-6-12-12-20t-13.5-11-11-3.5-13 0-12.5 0.5h-385q-20 0-42 22.5t-22 43.5v502q0 18 18 38.5t38 24.5v1q8 0 13.5 6t5.5 13.5-5.5 13.5-13.5 6v1l-1-1v1q-1 0-2.5-0.5l-1.5-0.5q-38-4-64.5-34.5t-26.5-68.5v-502q0-41 31.5-73t72.5-32h390q73 0 90 61 3 5 3 9 0 7-5.5 12.5t-12.5 5.5z" />
<glyph unicode="&#xe663;" glyph-name="jianyingset" d="M549-107h-74q-20 0-34 14t-14 34v44q0 12-8 23t-19 15l-63 25q-12 6-25.5 4t-21.5-10l-31-31q-14-14-34-14t-34 14l-52 52q-14 14-14 34t14 34l31 31q8 8 10.5 22t-3.5 24l-26 63q-4 12-15 20t-23 8h-44q-20 0-34 14t-14 34v74q0 20 14 34t34 14h44q12 0 23 8t15 19l26 63q5 11 3.5 25t-10.5 22l-31 31q-14 14-14 34t14 34l52 52q13 14 33.5 14t34.5-14l31-31q8-8 22-10t24 3l63 26q12 4 20 15t8 23v44q0 20 14 34t34 14h74q20 0 34-14t14-34v-44q0-12 8-23t19-15l63-26q12-5 25.5-3t21.5 10l31 31q14 14 34 14t34-14l52-52q14-14 14-34t-14-34l-31-31q-9-8-10.5-22t3.5-24l26-63q4-12 15-20t23-8h44q20 0 34-14t14-34v-74q0-20-14-34t-34-14h-44q-12 0-23-8t-15-19l-26-63q-5-11-3-25t10-22l31-31q14-14 14-34t-14-34l-52-52q-14-14-34-14t-34 14l-31 31q-8 8-22 10t-24-3l-63-26q-11-4-19.5-15t-8.5-23v-44q0-20-14-34t-34-14v0zM319 75q15 0 27-7l61-25q17-5 29.5-22t12.5-36v-44q0-11 7.5-18.5t18.5-7.5h74q11 0 18.5 7.5t7.5 18.5v44q0 19 12.5 36t30.5 22l61 25q13 8 35.5 5t34.5-15l32-32q7-7 18-7t18 7l53 52q7 8 7 19t-7 18l-32 32q-13 13-16 33.5t6 37.5l25 61q5 17 22 29.5t36 12.5h44q11 0 18.5 7.5t7.5 18.5v74q0 11-7.5 18.5t-18.5 7.5h-44q-19 0-36 12.5t-23 30.5l-25 61q-8 16-5 36.5t16 33.5l32 32q7 7 7 18t-7 19l-52 52q-8 7-19 7t-18-7l-32-32q-13-12-34-15.5t-37 5.5l-61 25q-17 5-29.5 22t-12.5 36v44q0 11-7.5 18.5t-18.5 7.5h-74q-11 0-18.5-7.5t-7.5-18.5v-44q0-19-12.5-36t-30.5-23l-61-25q-14-8-36-4.5t-34 15.5l-32 32q-7 7-18 7t-19-7l-52-52q-7-8-7-19t7-18l32-32q13-13 16-34t-6-37l-25-61q-5-17-22-29.5t-36-12.5h-44q-11 0-18.5-7.5t-7.5-18.5v-74q0-11 7.5-18.5t18.5-7.5h44q19 0 36-12.5t22-30.5l26-61q8-16 5-36.5t-16-33.5l-32-32q-7-7-7-18t7-19l52-52q8-7 19-7t18 7l32 32q17 17 44 17v0zM512 189q-81 0-138 57t-57 138 57 138.5 138 57.5 138.5-57.5 57.5-138.5-57.5-138-138.5-57v0zM512 558q-72 0-123-51t-51-123 51-123 123-51 123 51 51 123-51 123-123 51v0z" />
<glyph unicode="&#xe664;" glyph-name="guanbi" d="M944-51q-10 0-16 6l-864 864q-7 7-7 17.5t7 18 16 7.5 16-8l864-864q7-7 7-17.5t-7-17.5q-6-6-16-6zM80-51q-10 0-16 6-7 7-7 17.5t7 17.5l864 864q16 16 32 0 7-7 7-17.5t-7-17.5l-864-864q-6-6-16-6z" />
<glyph unicode="&#xe665;" glyph-name="tishi" d="M513 833q-91 0-174.5-35.5t-143.5-96-95.5-143.5-35.5-174.5 35.5-174.5 95.5-143 143.5-96 174.5-36 174.5 36 143.5 96 96 143 36 174.5-36 174.5-96 143.5-143.5 96-174.5 35.5zM513.5-31q-112.5 0-208 55.5t-151.5 151-56 208 56 208 151.5 151 208 55.5 208-55.5 151-151 55.5-208-55.5-208-151-151-208-55.5zM513 264q7 0 12 5t5 12v318q0 7-5 12t-12 5-12-5-5-12v-318q0-7 5-12t12-5zM513 223q-11 0-19-8t-8-19 8-19 19-8 19 8 8 19-8 19-19 8z" />
<glyph unicode="&#xe666;" glyph-name="uniE666" d="M67 707h317q8 0 14 6t6 14.5-6 14.5-14 6h-317q-9 0-15-6t-6-14.5 6-14.5 15-6zM61 312h231q6 0 10.5 6t4.5 14.5-4.5 14.5-10.5 6h-231q-6 0-10.5-6t-4.5-14.5 4.5-14.5 10.5-6zM888-26h-824q-7 0-12.5-6t-5.5-14q0-9 5.5-15t12.5-6h824q8 0 13 6t5 15q0 8-5 14t-13 6zM977 110l-120 107q46 48 69 111t16 132q-7 83-54.5 149.5t-122 101-157.5 26.5-149.5-55.5-101-121.5-27-157 55-150 122-101 157.5-27q45 5 87 22h-1l-1-1q8 6 9 15t-4 15.5-13.5 7.5-16.5-4v0q-31-11-64-14-110-10-195 60.5t-95 180 60.5 194.5 180.5 95.5 194.5-60 94.5-180.5q6-63-16-120t-67-99q-12-6-12-19 0-10 8-17v-1l135-121q7-5 15.5-5t14 6.5 5 15-6.5 14.5z" />
<glyph unicode="&#xe667;" glyph-name="dianpu" d="M874.5 256q-8.5 0-15-6.5t-6.5-14.5v-214q0-9-6-15t-15-6h-640q-9 0-15 6t-6 15v214q0 8-6.5 14.5t-15 6.5-15-6.5-6.5-14.5v-214q0-26 19-45t45-19h640q26 0 45 19t19 45v214q0 8-6.5 14.5t-15 6.5zM180 308q58-19 114.5 6t78.5 81q17-43 54.5-69.5t83.5-26.5h2q46 0 83.5 26.5t54.5 69.5q22-56 78.5-81t114.5-6q108 34 93 194-5 43-32 136-43 145-64 162-13 11-47 11h-564q-34 0-47-11-21-17-64-162-27-93-32-136-15-160 93-194zM132 500q4 39 31 129 10 32 22 66.5t19 53.5l8 19h600q28-68 49-139 27-91 31-129 7-55-8-96.5t-54-55.5q-42-15-83.5 4t-56.5 61l-28 76v131q0 9-6 15.5t-15 6.5-15.5-6.5-6.5-15.5v-168q0-45-31-78t-75-33h-2q-44 0-75 33t-31 78v168q0 9-6.5 15.5t-15.5 6.5-15-6.5-6-15.5v-131l-28-76q-15-42-56.5-61t-83.5-4q-39 14-54 55.5t-8 96.5z" />
<glyph unicode="&#xe668;" glyph-name="pingjiahaoping" d="M512 13q-75 0-144 29-67 28-118.5 79.5t-79.5 118.5q-29 69-29 144t29 144q28 67 79.5 118.5t118.5 79.5q69 29 144 29t144-29q67-28 118.5-79.5t79.5-118.5q29-69 29-144t-29-144q-28-67-79.5-118.5t-118.5-79.5q-69-29-144-29zM512 711q-89 0-164.5-43.5t-119-119-43.5-164.5 43.5-164.5 119-119 164.5-43.5 164.5 43.5 119 119 43.5 164.5-43.5 164.5-119 119-164.5 43.5zM349 547q19 0 33-13.5t14-33-14-33-33-13.5-32.5 13.5-13.5 33 13.5 33 32.5 13.5zM675 547q19 0 32.5-13.5t13.5-33-13.5-33-32.5-13.5-33 13.5-14 33 14 33 33 13.5zM512 128q-72 0-128.5 44t-74.5 113q-2 9 3 17.5t14 11 17.5-2.5 10.5-14q14-54 58-88t100-34 100 34 58 88q2 9 10.5 14t17.5 2.5 14-11 3-17.5q-18-69-74.5-113t-128.5-44z" />
<glyph unicode="&#xe669;" glyph-name="pc" d="M512-128q-104 0-199 40.5t-163.5 109-109 163.5-40.5 199 40.5 199 109 163.5 163.5 109 199 40.5 199-40.5 163.5-109 109-163.5 40.5-199-40.5-199-109-163.5-163.5-109-199-40.5zM512 863q-97 0-186-38t-153-102-102-153-38-186 38-186 102-153 153-102 186-38 186 38 153 102 102 153 38 186-38 186-102 153-153 102-186 38zM518 83q-7 0-11.5 5t-4.5 12v133q0 7 4.5 12t11.5 5 12-5 5-12v-133q0-7-5-12t-12-5zM679 75h-322q-7 0-11.5 5t-4.5 12 4.5 11.5 11.5 4.5h322q7 0 12-4.5t5-11.5-5-12-12-5zM802 229h-568q-6 0-11 5t-5 12v372q0 6 5 11t11 5h568q7 0 11.5-5t4.5-11v-372q0-7-4.5-12t-11.5-5zM251 262h535v339h-535v-339z" />
<glyph unicode="&#xe66a;" glyph-name="icon-square" d="M960 71q0-60-41.5-101.5t-101.5-41.5h-611q-59 0-101 41.5t-42 101.5v611q0 59 42 101t101 42h611q60 0 101.5-42t41.5-101v-611zM920 683q0 42-29.5 72t-72.5 30h-613q-42 0-72-30t-30-72v-613q0-43 30-72.5t72-29.5h613q43 0 72.5 29.5t29.5 72.5v613z" />
<glyph unicode="&#xe66b;" glyph-name="zhifubao" d="M512-127q-104 0-199 40-92 39-162.5 110t-109.5 162q-40 95-40 199.5t40 199.5q39 91 109.5 162t162.5 110q95 40 199 40t199-40q92-39 162.5-110t109.5-162q40-95 40-199t-40-200q-39-91-109.5-162t-162.5-110q-95-40-199-40v0zM512 861q-97 0-185-37-86-37-152-102.5t-102-151.5q-37-89-37-185.5t37-185.5q36-85 102-151t152-102q88-38 185-38t185 38q86 36 152 102t102 151q37 89 37 186t-37 185q-36 86-102 151.5t-152 102.5q-88 37-185 37v0zM608 331q23 43 41.5 90t24.5 72l6 26h-178v68h212v29h-212v101h-97v-101h-192v-29h192v-68h-164v-29h333q0-3-8-26.5t-19.5-54.5-20.5-49q-36 14-69 24.5t-59 16.5-50 9.5-41.5 4.5-34.5-0.5-27-3.5-21.5-6-16-6-11.5-6-8-4q-46-33-63-71.5t-9-70.5 24.5-59 35.5-41.5 27-13.5q216-48 361 126 5-5 15-5 24-13 101-50.5t142.5-68.5l65.5-31v145q-7 0-16.5 1.5t-23.5 5-27 7-33 9.5-34 10.5-37.5 12.5-36.5 12-38 12.5-34 11.5v0zM483 288q-34-44-74.5-70t-72.5-34-65.5-7-49.5 5-28 9q-21 6-35 26t-16.5 44 9.5 48.5 37 36.5q43 13 86.5 14.5t83.5-8.5 69.5-21 64.5-29l-9-14z" />
<glyph unicode="&#xe66c;" glyph-name="102" d="M512 896q-138 0-256-69t-187-187-69-256 69-256 187-187 256-69 256 69 187 187 69 256-69 256-187 187-256 69zM576 64h-128v128h128v-128zM576 320q0-29-17.5-46.5t-46.5-17.5-46.5 17.5-17.5 46.5v320q0 29 17.5 46.5t46.5 17.5 46.5-17.5 17.5-46.5v-320z" />
<glyph unicode="&#xe66d;" glyph-name="49" d="M506 831q-91-1-173.5-37.5t-141.5-97.5-93-144-33-174 37.5-173.5 97.5-141.5 144-93 174-33 173.5 37.5 141.5 97.5 93 144 33 174-37.5 173.5-97.5 141.5-144 93-174 33zM518-33.5q-113-1.5-210 53t-154.5 150-59 208.5 53 210 150 154.5 208.5 59 210-53 154.5-150 59-208.5-53-210-150-154.5-208.5-59zM619 596q-39 34-108 34-65 0-105-41-36-38-39-99h24q3 50 31 83 33 38 88 38t88-29 33-73q0-36-36-77-35-34-65-63-19-20-27-44-8-22-9-72h22q0 26 2 41 3 20 14 39 9 13 81 84 44 44 44 89 0 57-38 90zM503 194q-12 0-21-9t-9-21.5 9-21 21-8.5 21 8.5 9 21-9 21.5-21 9z" />
<glyph unicode="&#xe66e;" glyph-name="pinglun" d="M510.561 830.003c-246.707 0-446.602-199.926-446.602-446.577 0-246.646 199.895-446.577 446.633-446.577 246.615 0 446.577 199.931 446.577 446.577 0 246.656-199.956 446.577-446.607 446.577zM260.659 312.33c-39.265 0-71.096 31.831-71.101 71.096 0 39.265 31.831 71.101 71.101 71.101s71.101-31.831 71.101-71.101c-0.005-39.265-31.836-71.096-71.101-71.096zM511.421 312.33c-39.265 0-71.101 31.831-71.101 71.101 0 39.265 31.831 71.101 71.101 71.101s71.101-31.831 71.101-71.101c-0.005-39.27-31.831-71.101-71.101-71.101zM765.455 312.33c-39.265 0-71.101 31.831-71.101 71.101 0 39.265 31.836 71.101 71.101 71.101s71.101-31.831 71.101-71.101c0-39.27-31.836-71.101-71.101-71.101z" />
<glyph unicode="&#xe66f;" glyph-name="daifukuan2" d="M816 785h-608q-60 0-102.5-42t-42.5-101v-516q0-59 42.5-101t102.5-42h608q60 0 102.5 42t42.5 101v516q0 59-42.5 101t-102.5 42zM915 309h-306q-24 0-40.5 16.5t-16.5 39.5v38q0 23 16.5 39.5t40.5 16.5h306v-150zM915 504h-306q-43 0-73-29.5t-30-71.5v-38q0-42 30-72t73-30h306v-137q0-40-29-68.5t-70-28.5h-608q-41 0-70 28.5t-29 68.5v516q0 40 29 68.5t70 28.5h608q41 0 70-28.5t29-68.5v-138zM597 383.5q0-15.5 11-26t27-10.5 27 10.5 11 26-11 26.5-27 11-27-11-11-26.5z" />
</font>
</defs>
</svg>
